<svg width="24" height="24" viewBox="0 0 24 24" fill="none" xmlns="http://www.w3.org/2000/svg">
<path d="M13 0H11V8.26794L6.86602 1.1077L5.13397 2.1077L9.26795 9.26794L2.10769 5.13397L1.10769 6.86603L8.28047 11.0072L0 11.011L0.000920296 13.011L8.2554 13.0072L1.10769 17.134L2.10769 18.866L9.26794 14.7321L5.13397 21.8923L6.86602 22.8923L11 15.732V24H13V15.7321L17.134 22.8923L18.866 21.8923L14.732 14.7321L21.8923 18.866L22.8923 17.134L15.7386 13.0038L24.0009 13L24 11L15.7255 11.0038L22.8923 6.86603L21.8923 5.13397L14.7321 9.26794L18.866 2.1077L17.134 1.1077L13 8.26794V0Z" fill="currentColor"/>
</svg>
