<svg width="24" height="24" viewBox="0 0 24 24" fill="none" xmlns="http://www.w3.org/2000/svg">
<path d="M3.51472 20.4853C5.76515 22.7357 8.8174 24 12 24H13V15.732L17.134 22.8923L18.866 21.8923L14.7321 14.7321L21.8923 18.866L22.8923 17.134L15.7446 13.0072L23.9991 13.011L24 11.011L15.7195 11.0072L22.8923 6.86603L21.8923 5.13397L14.7321 9.26794L18.866 2.1077L17.134 1.1077L13 8.26794V0H12C8.8174 0 5.76516 1.26428 3.51472 3.51472C1.26428 5.76515 0 8.8174 0 12C0 15.1826 1.26428 18.2348 3.51472 20.4853Z" fill="currentColor"/>
</svg>
