<svg width="24" height="24" viewBox="0 0 24 24" fill="none" xmlns="http://www.w3.org/2000/svg">
<path d="M11 0H12C18.6274 0 24 3.134 24 7C24 8.95869 22.6209 10.7295 20.3983 12C22.6209 13.2705 24 15.0413 24 17C24 20.866 18.6274 24 12 24H11V15.732L6.86602 22.8923L5.13397 21.8923L9.26794 14.7321L2.1077 18.866L1.1077 17.134L8.2554 13.0072L0.000919342 13.011L0 11.011L8.28047 11.0072L1.1077 6.86603L2.1077 5.13397L9.26795 9.26794L5.13397 2.1077L6.86602 1.1077L11 8.26794V0Z" fill="currentColor"/>
</svg>
