<svg width="1082" height="1082" viewBox="0 0 1082 1082" fill="none" xmlns="http://www.w3.org/2000/svg">
<path d="M1079.5 541C1079.5 838.405 838.405 1079.5 541 1079.5C243.595 1079.5 2.5 838.405 2.5 541C2.5 243.595 243.595 2.50005 541 2.50005C838.405 2.50005 1079.5 243.595 1079.5 541Z" fill="#3D76AB" stroke="white" stroke-width="5"/>
<path d="M495.189 46.7235C498.437 40.587 500.385 36.9513 507.668 31.675C508.213 31.2802 508.84 31.0084 509.498 30.8707C520.512 28.5685 527.798 27.8779 541 27.0816C554.76 26.9041 563.658 27.7316 582 31.0816C591.415 32.7755 597.329 34.1893 610.359 38.8517C610.781 39.0027 611.233 39.0997 611.68 39.1333C625.104 40.143 629.626 39.82 637 39.0816C655.934 39.3568 657.337 41.0485 662.85 43.5148C662.948 43.5588 663.045 43.5982 663.146 43.6363C664.358 44.0928 672.792 47.3372 676.5 50.5816C679.435 53.1496 681.831 60.0241 682.899 63.5034C683.305 64.8258 683.083 66.2435 682.336 67.4081C680.734 69.9069 677.891 74.2857 676.5 76.0816C674.5 78.6633 665.5 85.5 663 87.0816C660.5 88.6633 650.5 90 644.5 92.0816C638.5 94.1633 627.5 98.4184 625 99C622.5 99.5816 603.5 104.5 601 105.582C598.5 106.663 584.5 111 582 112.082C579.5 113.163 574.5 114.918 570 116C566.809 116.767 561.858 119.001 559.248 120.236C558.117 120.771 557.252 121.73 556.805 122.898L551.128 137.746C551.043 137.97 550.973 138.201 550.921 138.434C549.525 144.66 548.966 148.071 546 155.582C544.741 160.428 543.793 163.508 542.172 167.665C541.474 169.455 539.781 170.672 537.862 170.743C536.197 170.804 534.676 170.799 532.668 170.668C531.9 170.618 531.133 170.748 530.397 170.976C528.69 171.504 527.432 171.442 525.635 170.817C525.211 170.669 524.816 170.447 524.459 170.173C522.285 168.5 521.057 167.17 519.867 164.463C519.613 163.886 519.5 163.258 519.5 162.628V138.082V112.082V92.9524C519.5 92.3762 519.401 91.8021 519.2 91.2621C516.973 85.2755 514.732 81.7936 508.5 76.0816L495 61.0816C492.152 56.9134 492.818 53.5868 494.87 47.4656C494.956 47.2113 495.064 46.9605 495.189 46.7235Z" fill="white" fill-opacity="0.5"/>
<path d="M336.061 66.733C333.191 54.7348 331.285 48.706 328.093 47.7242C327.396 47.51 326.648 47.7589 325.997 48.087C164.406 129.561 101.268 200.621 31.3006 368.575C30.7941 369.791 30.7771 371.178 31.2613 372.403C32.7891 376.268 36.1165 384.931 36.5001 388C37.0001 392 37.0001 409 36.5001 414.582C36.0001 420.164 30.5001 453 30.5001 457.582C30.5001 462.164 29.5001 491 30.5001 496.082C31.5001 501.164 40.5001 535.5 42.5001 539.082C44.5001 542.664 52.5001 563.664 58.5001 568.582C64.5001 573.5 74.0001 582.164 86.0001 581.082C98.0001 580 123.5 572.664 130 568.582C136.5 564.5 157.5 545.164 163.5 539.082C169.431 533.07 203.206 489.604 203.986 488.6C204.004 488.577 204.01 488.569 204.022 488.555L204.038 488.536L234.924 450.675C234.975 450.613 235.021 450.554 235.068 450.49C236.372 448.72 256.066 421.912 258 414.582C260 407 263.5 387.164 264 380.082C264.5 373 262 352.164 264 346.082C266 340 274 328.664 279 323.582C284 318.5 298.5 307.164 302.5 304.082C306.5 301 330.5 287.664 336.5 283.082C342.26 278.683 356.316 267.983 357.43 267.135C357.482 267.096 357.526 267.064 357.58 267.026C359.189 265.897 384.659 248.019 389.5 243.582C394.5 239 397 231.164 398.5 220.582C400 210 399.5 203.664 398.5 199.582C397.5 195.5 393 185.664 389.5 181.082C386 176.5 373 165.664 370 163.582C367 161.5 352.5 155.164 346.5 153.582C340.5 152 322.467 146.931 317 149.082C314.307 150.141 310.584 153.877 307.58 157.296C305.111 160.106 298.155 162.635 294.52 161.754C290.914 160.881 287.016 159.86 285 159.082C280.696 157.421 276.63 145.883 278.913 139.322C278.969 139.16 279.037 139.008 279.114 138.855C280.197 136.704 288.661 119.933 291 116.582C293.5 113 302 106.164 307.5 102.082C313 97.9998 323.551 86.6409 327 82.5818C329.737 79.3619 333.684 73.2335 335.537 70.2083C336.174 69.1673 336.345 67.9203 336.061 66.733Z" fill="white" fill-opacity="0.5"/>
<path d="M754.178 88.3256L795.6 72.6636C797.771 71.8429 798.856 71.4326 799.979 71.5245C801.101 71.6164 802.098 72.1935 804.091 73.3475C956.339 161.509 1045.67 302.269 1071.15 461.588C1071.59 464.347 1071.81 465.726 1071.13 467.136C1070.46 468.545 1069.46 469.115 1067.45 470.254C1067.24 470.374 1067.02 470.497 1066.79 470.623C1065.93 471.098 1065.5 471.335 1064.94 471.491C1064.38 471.647 1063.91 471.667 1062.97 471.706C1061.29 471.775 1059.56 471.763 1057.15 471.691C1055.48 471.641 1054.64 471.616 1053.77 471.92C1052.9 472.224 1052.42 472.629 1051.45 473.441L1051.45 473.441C1050.33 474.387 1049.32 475.452 1048.03 476.955C1047.75 477.286 1047.61 477.452 1047.47 477.588C1047.33 477.725 1047.18 477.855 1046.88 478.116L1037.64 486.031C1037.32 486.305 1037.16 486.442 1037.02 486.588C1036.87 486.734 1036.74 486.899 1036.46 487.23C1035.19 488.746 1031.97 492.546 1030 494.582C1027.5 497.164 1025.5 498 1022 499.582C1019.19 500.853 1011.53 502.341 1008.63 502.877C1008.63 502.878 1008.64 502.876 1008.57 502.89C1008.5 502.905 1007.8 503.076 1006.4 503.418C1004.56 503.865 1000.43 504.452 994 503.082C990.749 502.389 982.043 496.476 980.171 493.73C979.643 492.955 979.085 492.076 978.5 491.082C974.388 484.092 972.644 479.47 972.153 478.047C972.038 477.712 971.98 477.544 971.956 477.48C971.932 477.417 971.893 477.321 971.815 477.128C971.209 475.637 969.255 470.778 968 467.082C966.5 462.664 967 462 964.5 455.582C962.209 449.701 957.819 440.324 957.101 438.796L957.1 438.794C957.052 438.693 957.028 438.641 957 438.585C956.972 438.529 956.943 438.475 956.886 438.368L949 423.582L942.119 413.752C942.059 413.666 942.029 413.623 941.99 413.571C941.951 413.518 941.925 413.485 941.875 413.42C941.233 412.599 938.275 408.897 936.5 408.082C934.5 407.164 930 408.082 928 408.082C926 408.082 920 409.5 917.5 410.582C915 411.664 912.5 413.582 910.5 416.082C908.5 418.582 904.5 428.5 903 435.082C901.5 441.664 902.5 450 903 455.582C903.481 460.953 907.202 473.115 907.483 474.028L907.5 474.08L907.518 474.139C907.866 475.212 913.051 491.2 914.5 494.582C916 498.082 920.5 506.5 923.5 510.582C926.312 514.409 933.079 522.924 933.915 523.975C933.957 524.028 933.978 524.054 934 524.081C934.022 524.108 934.044 524.134 934.088 524.187L941.191 532.622C941.601 533.108 941.805 533.351 942.073 533.589C942.34 533.827 942.571 533.98 943.034 534.287C945.493 535.916 951.87 539.858 957 540.582C963.5 541.5 1027.5 543 1032.5 542.582C1035.85 542.302 1038.08 541.5 1039.18 541.001L1039.22 540.984C1040.35 540.475 1040.91 540.22 1040.96 540.199C1041 540.181 1040.83 540.25 1040.83 540.25L1040.86 540.24L1046.13 538.132L1046.13 538.132C1046.85 537.841 1047.22 537.696 1047.67 537.606C1048.12 537.516 1048.4 537.512 1048.98 537.503H1048.98C1051.84 537.462 1053.78 538.167 1056.41 539.858L1056.41 539.859C1056.91 540.176 1057.16 540.335 1057.44 540.588C1057.73 540.84 1057.93 541.086 1058.34 541.577C1060.62 544.302 1061.82 546.195 1061.99 548.883C1062.02 549.269 1062.03 549.462 1061.93 550.038C1061.83 550.614 1061.75 550.809 1061.58 551.2C1060.62 553.437 1057.82 558.712 1051 564.082C1042 571.164 1029 577.5 1022 584.082C1015 590.664 1004 606 1000 610.582C996 615.164 975 633 972 637.082C969 641.164 963 657 961.5 663.082C960 669.164 958.5 684.5 961.5 695.582C964.5 706.664 971 708 972 720.582C973 733.164 974 753 972 762.582C970 772.164 966 786 961.5 795.082C957 804.164 957 809.5 942.5 827.582C928 845.664 923.5 845.5 912.5 861.582C901.5 877.664 901 881 890 897.082C879.501 912.431 854.429 938.106 852.164 940.415C852.089 940.492 852.051 940.53 852.019 940.564C851.995 940.59 851.957 940.631 851.89 940.704L851.831 940.77C850.587 942.135 842.635 950.651 833 956.082C822.5 962 799 949.664 785.5 940.582C772 931.5 765.5 924.664 753.5 908.082C742.068 892.285 730.182 864.383 729.083 861.778C729.04 861.678 729.019 861.627 728.997 861.579C728.975 861.53 728.951 861.478 728.902 861.375C726.839 857.015 692.833 784.962 687.5 762.582C682 739.5 674.5 582.164 673 550.082C671.515 518.316 674.516 508.143 663.823 458.087C663.663 457.339 663.583 456.966 663.452 456.616C663.321 456.267 663.133 455.93 662.757 455.256C646.472 426.051 638.783 403.246 629.395 355.208C628.953 352.947 628.732 351.817 629.098 350.622C629.463 349.426 630.22 348.672 631.733 347.163C632.827 346.072 634.233 344.715 636 343.082C641.5 338 647.5 332.164 654.5 329.082C661.5 326 675.5 324.664 683 324.582C690.5 324.5 705 327.664 715.5 329.082C726 330.5 746 331.664 755 333.582C764 335.5 773 340.164 785.5 343.082C798 346 810.5 348.664 819 350.582C827.5 352.5 843.5 357.664 852 359.082C860.5 360.5 883 364.164 890 364.082C897 364 908 362.164 912.5 359.082C917 356 919 349.664 919 343.082C919 336.5 913.5 331.5 908 324.582C902.5 317.664 905 319.5 897 313.582C889 307.664 878.5 306 869 304.082C859.5 302.164 844 300.5 833 300.082C822 299.664 803.5 301 795.5 300.082C787.5 299.164 768 294 759 292.082C750 290.164 727.5 284.164 715.5 284.082C703.5 284 697.5 286.5 687.5 292.082C677.5 297.664 675.347 299.488 663.5 304.082C655.034 306.114 649.506 306.582 637.106 304.29C636.561 304.189 636.288 304.139 636.001 304.049C635.714 303.96 635.466 303.848 634.971 303.625C630.129 301.445 627.065 299.58 624.408 295.996C623.279 294.474 622.714 293.712 622.547 292.422C622.38 291.131 622.823 290.025 623.708 287.812L636 257.082C639.319 248.1 644.5 236 644.5 234.082C644.5 232.394 642.854 228.762 638.112 224.06C637.152 223.107 636.671 222.631 635.906 222.266C635.14 221.9 634.472 221.827 633.136 221.681C630.296 221.37 627.722 221.4 623.797 221.856L623.797 221.856C622.806 221.972 622.31 222.029 621.779 221.978C621.248 221.926 620.917 221.82 620.254 221.608L620.254 221.608C618.306 220.985 616.554 220.071 614.383 218.526C612.306 217.048 611.268 216.309 610.723 214.936C610.178 213.564 610.441 212.241 610.968 209.594C611.929 204.763 613.607 197.717 616 192.582C619.585 184.89 632.809 165.282 635.515 161.296L635.515 161.296C635.752 160.946 635.871 160.771 636.012 160.598C636.153 160.426 636.303 160.272 636.603 159.966C639.903 156.595 655.899 140.256 663.5 132.582C672 124 689 113.164 704.5 104.582C718.693 96.7234 747.98 89.8409 752.817 88.7364L752.817 88.7364C753.168 88.6562 753.344 88.6161 753.508 88.5666C753.672 88.5172 753.84 88.4533 754.178 88.3257L754.178 88.3256Z" fill="white" fill-opacity="0.5"/>
<path d="M287.5 999.582C287.031 1002.2 286.013 1004.98 285.064 1007.2C284.013 1009.65 284.795 1012.61 287.079 1013.99C322.891 1035.69 345.575 1044.94 387.162 1054.36C388.909 1054.76 390.757 1054.19 391.918 1052.83C397.9 1045.8 398.948 1041.94 403.5 1034.58C408.5 1026.5 422 1006.16 425 999.582C428 993 432.5 974.664 435 965.082C437.5 955.5 441.5 942.664 446.5 932.582C451.5 922.5 464.5 907.664 474.5 895.082C484.5 882.5 488.5 873.664 493.5 864.582C498.5 855.5 509.5 831.664 512 825.582C514.5 819.5 522.5 800.664 524 793.082C525.5 785.5 517.5 765.664 517 760.582C516.5 755.5 513.5 733.664 512 726.082C510.5 718.5 505 700.164 502.5 691.082C500 682 487 662.664 483.5 658.082C480.039 653.551 447.238 624.241 446.512 623.593C446.496 623.578 446.491 623.574 446.481 623.564L446.467 623.551L412.936 592.486C412.646 592.218 412.326 591.984 411.981 591.791L362.896 564.303C362.632 564.156 362.356 564.033 362.071 563.935L305.5 544.582C294.398 540.509 288.414 539.438 278.681 539.571C278.231 539.577 277.776 539.648 277.345 539.779C266.072 543.209 261.772 546.661 255.5 553.582C245.629 562.978 241.693 567.594 236.5 575.082C226.463 591.251 225.5 597.164 221 609.582C216.539 621.894 212.562 634.872 209.577 644.337C209.525 644.502 209.467 644.657 209.4 644.816C208.377 647.212 199.819 667.561 197 684.082C194 701.664 192.5 707 197 719.582C201.5 732.164 207.5 734 209.5 736.082C211.5 738.164 221 742.5 221 751.582V769.876C221 770.016 221.006 770.154 221.018 770.294C221.799 779.057 224.872 784.065 231.266 792.764C231.42 792.974 231.595 793.176 231.781 793.359C239.475 800.93 244.83 804.819 255.5 811.082C262.007 813.973 270 816.5 278 818.582C286 820.664 326.5 833 326.5 837.582C326.5 841.844 308.33 852.886 305.793 854.407C305.592 854.528 305.404 854.659 305.221 854.806C294.333 863.585 292.684 869.191 287.743 878.62C287.583 878.925 287.45 879.253 287.357 879.585C282.69 896.178 284.49 907.046 283.5 911.582C282.5 916.164 279 934 278 944.082C277 954.164 276.5 966.5 278 972.082C279.5 977.664 288.5 994 287.5 999.582Z" fill="white" fill-opacity="0.5"/>
<path d="M671.466 450.216C671.932 452.432 682.805 473.138 690.317 475.433C697.828 477.728 698.05 475.867 706.374 473.334C714.698 470.8 720.5 460.505 722.5 458.5C726.289 454.701 739.013 445.457 743.257 442.729C747.5 440 754.624 435.392 762.062 430.446C769.5 425.5 775.198 422.548 779.849 420.024C784.5 417.5 789.362 414.266 797.181 413.383C805 412.5 815.327 413.928 821.163 415.214C827 416.5 834.546 418.779 841.273 423.389C848 428 855.107 438.403 857.5 442C859.893 445.597 864.512 450.06 864.772 455.581C865.018 460.793 863.345 468.701 863.165 469.531C863.154 469.582 863.143 469.628 863.13 469.678L860.005 481.987C859.629 484.099 859.431 485.546 859.331 486.871C859.185 488.795 860.346 490.551 862.065 491.428C864.124 492.478 866.838 493.931 868.541 495.116C871.503 497.177 872.538 498.865 873.769 500.703C873.835 500.801 873.902 500.894 873.973 500.987C874.58 501.779 877.632 505.833 878.797 508.784C880.095 512.067 879.733 513.908 878.366 516.204C877.01 518.483 872.568 517.515 870.318 517.025L870.267 517.014C868.356 516.598 865.378 515.112 864.559 514.692C864.414 514.618 864.276 514.536 864.14 514.447C862.385 513.286 861.278 512.512 859.377 510.806C859.098 510.556 858.852 510.273 858.638 509.965L856.034 506.214C855.05 504.796 853.402 503.988 851.678 504.085C848.355 504.272 845.831 504.386 841.951 503.949C836.102 503.509 831.359 502.151 827.929 502.326C824.5 502.5 814.003 503.172 811.252 504.086C809.482 504.674 804.231 506.193 800.71 507.201C798.684 507.781 797.246 509.566 797.059 511.665C796.156 521.811 794.651 528.028 791.493 538.01C787.19 550.478 784.27 562.077 783 569C781.731 575.924 775.5 598 774 604C772.525 609.902 759.301 637.307 758.866 638.207C758.855 638.231 758.851 638.237 758.843 638.255L758.837 638.268C758.427 639.157 750.978 655.262 745.566 664.006C740 673 729.797 686.268 723 691C716.203 695.732 686 705 680.539 707.025C675.077 709.05 647.5 716.5 642.152 718.272C636.805 720.044 625 725 607.779 723.654C595.141 722.666 582.229 718.261 576.252 715.986C574.198 715.205 571.862 715.754 570.514 717.489C566.54 722.599 558.577 733.665 555.783 743.577C552 757 551.551 756.765 548.5 766.5C545.449 776.235 538.06 788.142 535.5 792.5C532.94 796.858 529.127 803.531 524.563 809.515C520.303 815.103 507.403 826.474 505.71 827.958C505.585 828.067 505.465 828.162 505.329 828.258C503.858 829.293 494.468 835.849 487.06 839.781C480.954 843.023 471.982 844.903 467.991 845.624C466.683 845.861 465.349 845.519 464.285 844.723L461.944 842.972C460.684 842.029 459.053 841.735 457.543 842.177L442.189 846.676L429.731 849.904C427.308 850.532 424.794 849.272 423.848 846.954L422.916 844.673C422.75 844.266 422.531 843.88 422.259 843.535C418.705 839.043 415.812 837.699 410.235 837.006C409.838 836.957 409.435 836.962 409.038 837.01C404.1 837.61 401.116 837.615 396.342 841.352L387.017 848.579C385.457 849.788 383.356 849.912 381.538 849.145C378.535 847.878 376.07 847.622 372.291 848.429C372.012 848.488 371.738 848.577 371.475 848.687L351.745 856.928C351.24 857.139 350.7 857.268 350.153 857.298C346.414 857.504 344.272 857.256 342.904 855.934C341.948 855.011 341.055 853.81 340.614 852.557C340.192 851.36 339.782 849.443 339.269 846.513C339.056 845.297 339.313 844.046 339.976 843.004L341.065 841.294C343.301 837.782 339.989 833.375 335.994 834.545L316.801 840.169L305.285 843.543C302.635 844.319 299.857 842.8 299.081 840.15L297.956 836.312C297.179 833.662 294.402 832.143 291.752 832.919L287.625 834.128C286.868 834.35 286.069 834.395 285.297 834.233C281.662 833.473 279.515 832.544 276.688 829.517L271.365 824.929C269.928 823.69 267.914 823.372 266.166 824.109C257.373 827.819 251.65 830.155 242.149 830.78C236.256 831.523 233.105 831.472 229.9 830.688C228.261 830.287 227.032 828.934 226.697 827.28C225.797 822.849 226.047 820.385 226.667 817.05C226.798 816.344 227.086 815.673 227.513 815.095C229.489 812.423 231.049 810.777 233.167 808.973C234.45 807.881 236.216 807.587 237.816 808.116C242.803 809.763 253.553 813.273 255.908 813.723C259 814.313 274.664 815.125 280.569 814.313C286.269 813.529 307.794 806.397 309.278 805.904C309.336 805.885 309.388 805.869 309.446 805.852L326.153 800.957L349.027 794.255C349.132 794.225 349.22 794.196 349.323 794.159C351.37 793.409 375.543 784.548 379.191 782.813C382.711 781.138 394.912 773.66 396.746 772.533C396.907 772.435 397.063 772.351 397.233 772.271L417.441 762.774C417.538 762.729 417.635 762.687 417.735 762.647C419.165 762.081 430.551 757.544 434.637 755.105C439 752.5 448.857 744.002 454.179 740.001C459.5 736 463.977 734.943 469.989 731.722C475.733 728.643 485.844 718.864 486.729 718.002C486.776 717.957 486.816 717.92 486.864 717.876L499.558 706.386L515.799 690.686L528.341 676.591L541.083 661.395L552.443 645.041L561.428 633.03L574.908 612.718C575.078 612.462 575.225 612.193 575.339 611.908C577.385 606.795 578.278 598.919 570.383 596.019C562.314 593.056 550.98 599.945 547.885 602.581C547.847 602.613 547.819 602.638 547.782 602.672C547.008 603.379 537.306 612.225 531.5 616.5C525.76 620.727 510.462 626.938 508.909 627.563C508.817 627.6 508.749 627.625 508.655 627.657C506.89 628.241 487.179 634.737 479.032 636.331C470.5 638 461.346 637.351 454.173 636.841C447.211 636.346 431.411 632.562 430.49 632.34C430.46 632.333 430.448 632.33 430.418 632.322C429.486 632.079 406.384 626.035 400.998 624.286C395.5 622.5 385.338 619.14 381.169 617.07C377.247 615.123 362.709 607.356 361 606.443C360.888 606.383 360.784 606.332 360.668 606.28C358.854 605.47 342.888 598.239 341.041 593.919C339.636 590.635 340.237 585.636 340.69 583.069C340.88 581.992 341.482 581.048 342.344 580.376C344.504 578.694 348.812 575.446 351.417 574.206C355 572.5 364.502 571.633 367.251 569.567C370 567.5 370.331 566.151 368.782 562.345C367.515 559.232 361.84 555.322 359.671 553.857C359.111 553.479 358.508 553.147 357.882 552.894L349.501 549.515C348.286 549.025 347.324 548.072 346.764 546.889C345.319 543.839 344.042 542.054 341.435 540.138L326.264 531.037C321.015 527.357 318.038 525.204 313.359 521.748C312.723 521.279 312.188 520.672 311.91 519.932C311.26 518.2 311.079 516.369 311.169 513.656C311.235 511.673 312.56 509.943 314.458 509.363C317.836 508.331 320.446 507.928 324.249 508.024C324.573 508.032 324.892 508.075 325.209 508.143C326.759 508.476 331.833 509.485 336.078 509.405C341.036 509.311 342.194 505.796 340.346 500.748C340.256 500.503 340.178 500.251 340.124 499.995C338.985 494.609 338.94 490.918 336.411 487.424C333.955 484.032 323.473 475.788 322.404 474.95C322.34 474.901 322.285 474.855 322.224 474.803L305.72 460.607C305.639 460.537 305.557 460.471 305.471 460.406C304.185 459.435 293.548 451.381 291.304 449.059C288.915 446.588 286.665 439 286.665 433.225C286.665 427.45 289.547 424.579 291.274 424.059C293 423.54 303.546 424.079 307.273 423.54C308.969 423.294 311.706 422.515 314.184 421.739C317.121 420.819 318.41 417.437 316.825 414.799C315.769 413.044 314.63 411.249 313.777 410.172C312.991 409.18 310.657 406.856 308.068 404.33C304.8 401.142 292.383 389.97 289.93 386.12C289.075 384.777 288.312 383.239 287.622 381.364C285.964 376.104 284.85 372.944 283.826 368.408C282.105 360.189 280.705 355.932 278.361 349.39C277.986 348.345 277.951 347.194 278.355 346.159C279.927 342.136 281.825 340.479 285.494 338.822C285.848 338.663 286.224 338.549 286.607 338.489C290.208 337.919 292.389 338.264 296.13 339.273L304.394 342.583C306.142 343.094 307.654 342.859 309.837 341.815C311.798 340.877 312.698 338.62 312.17 336.512C311.05 332.042 309.043 324.498 307.408 320.86C305 315.5 302 313.5 300.055 309.989C298.109 306.477 297.706 300.969 294.853 292.235C292 283.5 288.584 277.922 289.792 274.961C290.819 272.443 307.104 269.226 311.952 268.32C312.841 268.153 313.686 267.78 314.305 267.12C315.78 265.549 316.128 264.161 316.085 261.874C316.081 261.645 316.087 261.418 316.103 261.189C316.195 259.804 316.4 254.252 314.597 245.811C312.95 238.107 307.995 222.384 305.942 215.985C305.386 214.252 305.777 212.318 307.143 211.115C311.278 207.474 314.419 207.372 319.148 208.399C319.965 208.576 320.717 208.977 321.337 209.538L331.724 218.91C336.613 222.734 339.801 223.177 342.89 220.832C345.997 218.473 346.607 209.475 346.026 205.617C346.013 205.526 346 205.438 345.987 205.353C345.705 203.394 345.645 192.232 346.04 186.361C346.188 184.159 346.854 181.254 347.137 179.065L349.533 160.548L352.3 148.7C352.456 148.03 352.743 147.392 353.182 146.863C355.435 144.143 357.339 143.5 360.389 142.751C360.761 142.659 361.145 142.61 361.529 142.619C364.173 142.679 365.724 143.307 367.751 144.894C368.316 145.337 368.755 145.923 369.053 146.576C371.916 152.863 372.857 156.77 373.83 162.748C373.995 163.756 373.838 164.791 373.391 165.709L370.851 170.929C370.834 170.964 370.819 170.995 370.804 171.031C370.53 171.65 367.783 178.085 368.559 185.194C368.581 185.398 368.594 185.6 368.598 185.804C368.619 187.106 368.778 192.427 369.979 198.5C371.224 204.799 373.302 210.11 373.705 211.11C373.752 211.224 373.788 211.32 373.827 211.437C374.555 213.62 382.6 237.679 384.691 241.425C386.882 245.351 392 250 393.145 252.495C394.211 254.82 399.545 269.527 400.267 271.522C400.323 271.676 400.368 271.824 400.408 271.982C400.989 274.251 405.61 292.207 407.237 295.258C408.904 298.386 417.234 312.786 417.898 313.932C417.929 313.986 417.954 314.033 417.983 314.088L427.261 331.594L434.303 343.376C434.378 343.502 434.446 343.628 434.511 343.76C435.143 345.047 438.801 352.404 441.851 356.496C445.203 360.992 452 369 455.831 372.199C459.661 375.398 468.722 382.5 473.086 384.858C477.45 387.216 486.366 395.433 490.433 390.717C494.221 386.324 486.928 376.377 485.91 375.034C485.831 374.929 485.758 374.828 485.685 374.719L477.531 362.432C477.443 362.299 477.349 362.171 477.249 362.047C476.302 360.856 471.084 354.178 468.722 348.623C466.118 342.5 466.236 334.632 466.118 329.066C466.053 325.978 465.335 322.199 464.708 319.446C464.202 317.222 463.68 314.841 465.694 313.768C466.317 313.436 467.054 313.057 467.907 312.628C470.086 311.533 471.194 309.048 470.509 306.708L469.165 302.123C467.074 296.137 466.27 293.412 465.605 290.123C465.541 289.807 465.51 289.483 465.511 289.16C465.53 283.165 465.843 280.76 466.736 277.826C468.496 272.618 469.579 270.051 472.304 268.379C478.354 265.082 482.222 263.314 486.37 261.833C489.361 260.765 490.699 257.345 489.628 254.354C488.688 251.731 488.321 249.315 488.157 246.019C487.771 239.416 487.625 235.373 487.695 229.932C487.72 228.048 488.82 226.33 490.556 225.596C495.137 223.66 498.321 223.017 502.783 222.243C503.923 222.045 504.96 221.465 505.69 220.567C507.6 218.218 511.382 213.32 512.913 209.589C514.181 206.497 515.06 201.245 515.555 197.601C515.873 195.253 517.715 193.376 520.056 193.013C525.72 192.134 535.633 190.194 538.105 187.098C539.856 184.906 538.99 181.92 537.68 179.476C536.31 176.92 536.503 173.545 538.816 171.795C542.244 169.201 543.91 168.231 546.06 166.978L546.107 166.951C547.063 166.394 547.787 165.521 548.252 164.518C550.704 159.237 554.156 156.13 558.742 152.499C561.344 150.439 565.244 151.691 566.178 154.876C566.368 155.527 566.415 156.213 566.311 156.884C565.349 163.115 564.578 166.858 562.668 173.129C560.604 180.07 558.895 182.57 558.087 187.098C557.278 191.627 555.859 200.856 554.93 207.178C554 213.5 554.677 222.225 554.93 224C555.182 225.775 557.173 232.528 558.087 237.514C558.952 242.238 563.351 255.668 563.812 257.069C563.839 257.153 563.859 257.22 563.883 257.306C564.46 259.426 572.623 289.337 575.941 298.452C579.382 307.905 581.22 309.32 585 314.5C588.78 319.68 592.413 325.079 594.957 327.789C597.318 330.306 603.36 338.813 604.211 340.016C604.281 340.114 604.35 340.204 604.426 340.297L615.613 353.956C615.65 354.002 615.682 354.04 615.721 354.083C616.43 354.891 624.232 363.772 629.027 369.388C633.384 374.49 636.6 380.609 637.381 382.151C637.505 382.397 637.643 382.63 637.802 382.855L647.262 396.216C647.314 396.289 647.357 396.352 647.404 396.427C648.417 398.036 661.104 418.214 663.593 423.346C666.186 428.691 671 448 671.466 450.216Z" fill="white" stroke="white" stroke-width="5"/>
</svg>
