<svg width="18" height="22" viewBox="0 0 18 22" fill="none" xmlns="http://www.w3.org/2000/svg">
<g id="calendar-day 1" clip-path="url(#clip0_1142_1303)">
<path id="Vector" d="M5.14286 0.934204C5.67723 0.934204 6.10714 1.36411 6.10714 1.89849V3.50563H11.8929V1.89849C11.8929 1.36411 12.3228 0.934204 12.8571 0.934204C13.3915 0.934204 13.8214 1.36411 13.8214 1.89849V3.50563H15.4286C16.8469 3.50563 18 4.65876 18 6.07706V6.71992V8.64849V18.9342C18 20.3525 16.8469 21.5056 15.4286 21.5056H2.57143C1.15313 21.5056 0 20.3525 0 18.9342V8.64849V6.71992V6.07706C0 4.65876 1.15313 3.50563 2.57143 3.50563H4.17857V1.89849C4.17857 1.36411 4.60848 0.934204 5.14286 0.934204ZM16.0714 8.64849H1.92857V18.9342C1.92857 19.2878 2.21786 19.5771 2.57143 19.5771H15.4286C15.7821 19.5771 16.0714 19.2878 16.0714 18.9342V8.64849ZM4.5 11.2199H8.35714C8.71071 11.2199 9 11.5092 9 11.8628V15.7199C9 16.0735 8.71071 16.3628 8.35714 16.3628H4.5C4.14643 16.3628 3.85714 16.0735 3.85714 15.7199V11.8628C3.85714 11.5092 4.14643 11.2199 4.5 11.2199Z" fill="black"/>
</g>
<defs>
<clipPath id="clip0_1142_1303">
<rect width="18" height="20.5714" fill="white" transform="translate(0 0.934204)"/>
</clipPath>
</defs>
</svg>
