<svg width="45" height="46" viewBox="0 0 45 46" fill="none" xmlns="http://www.w3.org/2000/svg">
<circle cx="22.5" cy="23.22" r="22.5" fill="#667785"/>
<path d="M11.9174 25.6469C12.3583 24.8105 12.2234 23.7822 11.5799 23.0966C10.6214 22.0729 10.1084 20.8435 10.1084 19.5638C10.1084 16.6616 12.9793 13.7138 17.3082 13.7138C21.637 13.7138 24.5079 16.6616 24.5079 19.5638C24.5079 22.4659 21.637 25.4138 17.3082 25.4138C16.7187 25.4138 16.1472 25.3544 15.6072 25.2492C15.1393 25.1578 14.6533 25.2218 14.2258 25.4412C14.0413 25.5372 13.8523 25.6286 13.6588 25.7154C12.9388 26.0445 12.1784 26.3324 11.4134 26.5381C11.5394 26.3278 11.6564 26.1222 11.7689 25.9165C11.8184 25.8297 11.8679 25.7383 11.9129 25.6469H11.9174ZM17.3082 27.6075C22.4785 27.6075 26.6679 24.0061 26.6679 19.5638C26.6679 15.1214 22.4785 11.52 17.3082 11.52C12.1379 11.52 7.9485 15.1214 7.9485 19.5638C7.9485 21.4742 8.72247 23.2246 10.0139 24.6048C9.97343 24.6825 9.92843 24.7648 9.88793 24.8379C9.42445 25.6788 8.88447 26.5061 8.24099 27.219C7.944 27.539 7.8675 28.0051 8.034 28.4028C8.20949 28.8095 8.59648 29.07 9.02846 29.07C10.9634 29.07 12.9208 28.4622 14.5498 27.7126C14.7658 27.6121 14.9818 27.507 15.1888 27.4019C15.8682 27.539 16.5792 27.6075 17.3082 27.6075ZM27.3878 33.4575C28.1168 33.4575 28.8233 33.3844 29.5073 33.2519C29.7143 33.357 29.9302 33.4621 30.1462 33.5626C31.7752 34.3122 33.7326 34.92 35.6675 34.92C36.0995 34.92 36.4865 34.6595 36.6575 34.2573C36.8285 33.8551 36.7475 33.389 36.4505 33.0736C35.8115 32.3606 35.2716 31.5334 34.8036 30.6925C34.7631 30.6148 34.7181 30.5371 34.6776 30.4594C35.9735 29.0746 36.7475 27.3242 36.7475 25.4138C36.7475 21.0994 32.7921 17.5757 27.8288 17.3792C28.0133 18.0738 28.1078 18.8051 28.1078 19.5638V19.5912C32.0317 19.8974 34.5876 22.6762 34.5876 25.4138C34.5876 26.6935 34.0746 27.9229 33.1161 28.9421C32.4727 29.6276 32.3377 30.6605 32.7786 31.4923C32.8281 31.5837 32.8776 31.6751 32.9226 31.7619C33.0351 31.9676 33.1566 32.1733 33.2781 32.3835C32.5132 32.1778 31.7527 31.8945 31.0327 31.5608C30.8392 31.474 30.6502 31.3826 30.4657 31.2866C30.0382 31.0672 29.5523 31.0033 29.0843 31.0947C28.5398 31.2044 27.9683 31.2592 27.3833 31.2592C24.6069 31.2592 22.4335 30.0481 21.2275 28.4119C20.5076 28.6587 19.7516 28.8415 18.9776 28.9512C20.5031 31.6203 23.698 33.4575 27.3878 33.4575Z" fill="#17344E"/>
</svg>
