<svg width="45" height="46" viewBox="0 0 45 46" fill="none" xmlns="http://www.w3.org/2000/svg">
<circle cx="22.5" cy="23.22" r="22.5" fill="#667785"/>
<g clip-path="url(#clip0_512_2338)">
<path d="M19.4375 13.6575C19.4375 13.1379 19.0195 12.72 18.5 12.72C17.9805 12.72 17.5625 13.1379 17.5625 13.6575V15.22H16C14.6211 15.22 13.5 16.3411 13.5 17.72V18.345V20.22V30.22C13.5 31.5989 14.6211 32.72 16 32.72H28.5C29.8789 32.72 31 31.5989 31 30.22V20.22V18.345V17.72C31 16.3411 29.8789 15.22 28.5 15.22H26.9375V13.6575C26.9375 13.1379 26.5195 12.72 26 12.72C25.4805 12.72 25.0625 13.1379 25.0625 13.6575V15.22H19.4375V13.6575ZM15.375 20.22H29.125V30.22C29.125 30.5637 28.8438 30.845 28.5 30.845H16C15.6562 30.845 15.375 30.5637 15.375 30.22V20.22Z" fill="#17344E"/>
</g>
<defs>
<clipPath id="clip0_512_2338">
<rect width="17.5" height="20" fill="white" transform="translate(13.5 12.72)"/>
</clipPath>
</defs>
</svg>
