<svg width="45" height="46" viewBox="0 0 45 46" fill="none" xmlns="http://www.w3.org/2000/svg">
<circle cx="22.5" cy="23.22" r="22.5" fill="#667785"/>
<g clip-path="url(#clip0_512_2325)">
<path d="M28.4286 31.0057V20.2914C28.4286 16.7423 25.5491 13.8628 22 13.8628C18.4509 13.8628 15.5714 16.7423 15.5714 20.2914V31.0057H13.4286V20.2914C13.4286 15.5593 17.2679 11.72 22 11.72C26.7321 11.72 30.5714 15.5593 30.5714 20.2914V31.0057H28.4286ZM12 33.5057C12 32.9119 12.4777 32.4343 13.0714 32.4343H30.9286C31.5223 32.4343 32 32.9119 32 33.5057C32 34.0994 31.5223 34.5771 30.9286 34.5771H13.0714C12.4777 34.5771 12 34.0994 12 33.5057ZM23.0714 18.5057V20.2914H25.2143C25.808 20.2914 26.2857 20.7691 26.2857 21.3628C26.2857 21.9566 25.808 22.4343 25.2143 22.4343H23.0714V27.7914C23.0714 28.3851 22.5938 28.8628 22 28.8628C21.4062 28.8628 20.9286 28.3851 20.9286 27.7914V22.4343H18.7857C18.192 22.4343 17.7143 21.9566 17.7143 21.3628C17.7143 20.7691 18.192 20.2914 18.7857 20.2914H20.9286V18.5057C20.9286 17.9119 21.4062 17.4343 22 17.4343C22.5938 17.4343 23.0714 17.9119 23.0714 18.5057Z" fill="#17344E"/>
</g>
<defs>
<clipPath id="clip0_512_2325">
<rect width="20" height="22.8571" fill="#667785" transform="translate(12 11.72)"/>
</clipPath>
</defs>
</svg>
