<?xml version="1.0" encoding="UTF-8"?>
<svg version="1.1" xmlns="http://www.w3.org/2000/svg" width="512" height="512">
<path d="M0 0 C1.59327438 1.35061135 3.125047 2.77348231 4.63671875 4.21484375 C3.35784426 8.05146721 2.2238446 8.25295903 -1.3046875 10.078125 C-2.35124512 10.62799072 -3.39780273 11.17785645 -4.47607422 11.74438477 C-6.1836792 12.62694946 -6.1836792 12.62694946 -7.92578125 13.52734375 C-10.31861303 14.78638185 -12.70651243 16.05461113 -15.09375 17.32421875 C-15.70261047 17.64733536 -16.31147095 17.97045197 -16.93878174 18.30335999 C-30.77715422 25.67251022 -44.25101218 33.72010025 -57.42578125 42.21484375 C-58.22870605 42.73054932 -59.03163086 43.24625488 -59.85888672 43.77758789 C-71.42921117 51.35665625 -80.62922548 60.46757377 -84.36328125 74.21484375 C-87.65183025 90.64054962 -85.4779547 104.04590124 -76.36328125 118.21484375 C-75.055077 119.57284124 -73.72989419 120.91564221 -72.36328125 122.21484375 C-72.36328125 122.87484375 -72.36328125 123.53484375 -72.36328125 124.21484375 C-71.78835937 124.48554688 -71.2134375 124.75625 -70.62109375 125.03515625 C-68.33523889 126.22949564 -66.33762831 127.5947368 -64.23828125 129.08984375 C-56.09024127 134.59818813 -47.77464474 137.33989733 -37.98828125 137.58984375 C-36.05855469 137.66332031 -36.05855469 137.66332031 -34.08984375 137.73828125 C-20.98891566 136.9717222 -7.67560045 128.83459455 4.01171875 123.33984375 C23.41938474 114.25915825 23.41938474 114.25915825 32.52734375 110.23828125 C33.16981049 109.95211945 33.81227722 109.66595764 34.47421265 109.37112427 C43.66957517 105.34918003 52.77841122 103.5703359 62.38414001 107.27422714 C70.41430644 111.09313403 76.17463712 115.89376859 82.390625 122.19238281 C83.39944289 123.19304706 84.40952752 124.19243559 85.42076111 125.19065857 C88.13468415 127.87749245 90.82960002 130.58263715 93.52041626 133.29258823 C96.35353175 136.14102363 99.20140577 138.97464568 102.046875 141.81072998 C106.81828633 146.57126626 111.57699964 151.3442204 116.32861328 156.12451172 C121.80705823 161.63563992 127.30683339 167.12477039 132.81811047 172.60305047 C137.56919594 177.32683605 142.30839962 182.06230351 147.03801441 186.80758643 C149.85434098 189.63322291 152.6744593 192.45475461 155.50540161 195.2657547 C158.16552597 197.90843977 160.81034212 200.56557843 163.44445992 203.23417854 C164.86497835 204.66630321 166.3001463 206.0838514 167.73582458 207.5007782 C173.96544832 213.85370196 178.37720707 220.13946841 179.13671875 229.21484375 C178.72116278 235.83692922 176.26951249 242.16371002 171.32421875 246.65234375 C165.64181803 250.90210531 160.47659737 252.53247395 153.45703125 252.7109375 C143.79508933 251.01139924 138.13848162 245.32821866 131.57421875 238.40234375 C125.7910862 232.40779432 120.03363691 226.55782717 113.63671875 221.21484375 C113.09136475 220.75891846 112.54601074 220.30299316 111.98413086 219.83325195 C110.54205941 218.63936267 109.08971976 217.45790707 107.63671875 216.27734375 C106.68796875 215.50519531 105.73921875 214.73304688 104.76171875 213.9375 C104.06046875 213.36902344 103.35921875 212.80054688 102.63671875 212.21484375 C106.56726384 224.00647903 120.12830315 235.57117866 128.62719727 244.49316406 C135.43078995 251.67397101 139.71763182 256.56362711 140.13671875 266.71484375 C139.89594313 273.43326021 138.62875968 278.04554921 133.98828125 282.9609375 C128.04933459 288.36823173 122.74929728 289.74669419 114.76953125 289.58984375 C107.04642489 288.66538214 101.49236773 284.60380137 96.33203125 279.0234375 C94.60590475 277.18197075 92.79949723 275.54795277 90.88671875 273.90234375 C87.64156568 271.10738533 84.47559383 268.24018469 81.32421875 265.33984375 C72.20626839 257.03823881 62.54818408 249.53168465 52.63671875 242.21484375 C54.21855715 246.09873031 56.86481728 248.71650437 59.80078125 251.609375 C60.31168304 252.11981857 60.82258484 252.63026215 61.34896851 253.15617371 C62.43096467 254.23515432 63.51538474 255.31170899 64.60205078 256.38598633 C66.24040151 258.0062617 67.87078812 259.63421307 69.5 261.26367188 C74.5437096 266.28964349 79.63935734 271.20449906 85.04980469 275.83911133 C92.02576996 281.88673661 96.03447001 287.88064066 97.07421875 297.08984375 C96.79913994 302.91234513 94.84129834 308.61191191 91.05859375 313.078125 C85.22470461 318.37329915 79.26389712 320.51245786 71.45703125 320.7109375 C63.76299151 319.35755378 58.19098004 315.50458784 52.9140625 309.9453125 C52.32428116 309.34608475 51.73449982 308.74685699 51.12684631 308.12947083 C49.26363735 306.23202785 47.41844803 304.31822179 45.57421875 302.40234375 C43.1296719 299.8912525 40.67850206 297.38668317 38.2265625 294.8828125 C37.64441986 294.28621323 37.06227722 293.68961395 36.4624939 293.07493591 C32.36663841 288.8970487 28.14302379 284.94999143 23.63671875 281.21484375 C22.30216379 280.07043349 20.96880192 278.92463021 19.63671875 277.77734375 C18.64671875 276.93171875 17.65671875 276.08609375 16.63671875 275.21484375 C20.67673581 281.965252 25.60271205 287.64977554 30.9609375 293.359375 C33.71703002 296.30054818 36.38484192 299.29919859 39.01171875 302.35546875 C40.15202129 303.660238 41.32162316 304.93970092 42.51171875 306.19921875 C47.93192098 312.02593614 50.64822704 317.07356946 51.13671875 325.08984375 C50.89176401 331.72403463 48.42825961 337.3340212 43.8046875 342.10546875 C37.37901083 347.32712317 31.22525665 348.67528009 23.10546875 347.89453125 C13.78646889 345.32885724 6.4185151 339.15853562 0.81347656 331.41894531 C-2.40138421 325.39741772 -1.43301005 318.093791 -1.31591797 311.47216797 C-1.5301033 301.26413908 -7.75115117 291.33253424 -14.39453125 283.9609375 C-20.65387045 277.98508286 -28.17162543 273.94539569 -36.36328125 271.21484375 C-37.3203125 269.0625 -37.3203125 269.0625 -38.17578125 266.27734375 C-43.22709456 251.52521284 -51.67813032 243.28115465 -65.36328125 236.21484375 C-66.70712891 235.79525391 -66.70712891 235.79525391 -68.078125 235.3671875 C-71.30189947 233.74152345 -71.63972019 231.94969079 -72.80078125 228.58984375 C-76.5997507 218.75238891 -82.75951526 211.39992867 -91.36328125 205.21484375 C-93.44320357 204.38080267 -95.54907887 203.60862867 -97.67578125 202.90234375 C-101.26635364 201.57131628 -102.9268613 200.92362407 -104.953125 197.6328125 C-105.73674762 195.57745217 -106.47550582 193.50450666 -107.171875 191.41796875 C-111.27434564 180.38837556 -119.55395968 173.38487859 -129.86328125 168.46484375 C-143.23641627 162.42276468 -158.33580375 162.39996689 -172.17578125 166.94921875 C-188.9767054 173.62017393 -199.00000976 184.88758957 -206.36328125 201.21484375 C-215.8026097 198.51111651 -225.03602418 195.32392944 -234.36328125 192.21484375 C-234.36328125 133.14484375 -234.36328125 74.07484375 -234.36328125 13.21484375 C-227.88336251 15.15881937 -221.51973543 17.15196834 -215.1640625 19.4296875 C-213.44212669 20.0399094 -211.72011918 20.64992901 -209.99804688 21.25976562 C-207.34295692 22.2029024 -204.68852619 23.14778668 -202.03540039 24.09643555 C-171.59917856 35.46955217 -171.59917856 35.46955217 -140.36328125 30.21484375 C-135.96978258 27.82893689 -131.7533925 25.2160682 -127.52392578 22.55371094 C-106.57397488 9.57184306 -84.70606436 -1.79618235 -61.36328125 -9.78515625 C-60.27015625 -10.16671875 -59.17703125 -10.54828125 -58.05078125 -10.94140625 C-38.41257258 -16.83286885 -16.21044208 -12.24491244 0 0 Z " fill="#030104" transform="translate(234.36328125,85.78515625)"/>
<path d="M0 0 C14.39205369 8.18941775 26.63807747 20.11228349 39.13183594 30.88183594 C46.77673256 37.46827202 54.45616819 43.99506854 62.3203125 50.3203125 C63.55974609 51.32964844 63.55974609 51.32964844 64.82421875 52.359375 C65.60667969 52.98585937 66.38914062 53.61234375 67.1953125 54.2578125 C67.87335938 54.80308594 68.55140625 55.34835938 69.25 55.91015625 C74.99880824 59.82585394 81.71392772 60.93992336 88.50927734 59.75048828 C90.01941583 59.43539956 91.52667863 59.10630688 93.03125 58.765625 C93.87475006 58.58579071 94.71825012 58.40595642 95.58731079 58.22067261 C98.29274956 57.64095119 100.99394106 57.04366822 103.6953125 56.4453125 C105.37474236 56.08213985 107.05442963 55.7201555 108.734375 55.359375 C114.93170572 54.02234155 121.12582139 52.6704408 127.3203125 51.3203125 C141.1803125 48.3503125 155.0403125 45.3803125 169.3203125 42.3203125 C169.3203125 93.8003125 169.3203125 145.2803125 169.3203125 198.3203125 C162.56979149 200.57048617 162.56979149 200.57048617 159.26196289 201.17407227 C158.52422134 201.31083878 157.7864798 201.44760529 157.02638245 201.58851624 C156.24810593 201.72817307 155.46982941 201.8678299 154.66796875 202.01171875 C153.44043129 202.23697487 153.44043129 202.23697487 152.18809509 202.46678162 C150.46471552 202.7822114 148.74095661 203.09557487 147.0168457 203.40698242 C144.39386432 203.88081602 141.77205377 204.36072845 139.15039062 204.84179688 C137.46881493 205.14879337 135.78717631 205.45544542 134.10546875 205.76171875 C133.32921646 205.90339981 132.55296417 206.04508087 131.75318909 206.1910553 C116.74041476 208.898491 101.78598996 211.02153507 88.5078125 201.9453125 C83.87392302 198.20953768 79.74156374 193.87016948 75.59448242 189.60986328 C72.82619568 186.77247796 70.04180357 184.04992829 67.00390625 181.50170898 C61.00537445 176.27964102 55.46949207 170.57971442 49.86645508 164.94161987 C47.78253417 162.84480034 45.69538741 160.75123884 43.60742188 158.65844727 C38.42511259 153.46285057 33.24828989 148.26179826 28.07128906 143.06091309 C23.68566109 138.65547628 19.29793743 134.25214665 14.9074707 129.85153198 C12.86266487 127.80029801 10.82092186 125.74604959 8.77929688 123.69165039 C3.27246056 118.16341843 -2.20514731 112.67752305 -8.15820312 107.62362671 C-10.11518674 105.94726079 -11.90611439 104.14518741 -13.6796875 102.27734375 C-14.3396875 101.59607422 -14.9996875 100.91480469 -15.6796875 100.21289062 C-17.01888753 98.82007028 -18.35219284 97.4215593 -19.6796875 96.01757812 C-26.29832965 89.224421 -32.66393162 85.85743356 -42.1796875 85.0078125 C-55.66534134 85.32565097 -68.2072971 93.36463322 -79.8046875 99.4453125 C-81.55939355 100.35513603 -83.3145999 101.26399536 -85.0703125 102.171875 C-92.03678071 105.7807901 -98.98511648 109.42377213 -105.92333984 113.08666992 C-106.7703244 113.53360199 -107.61730896 113.98053406 -108.48995972 114.44100952 C-110.07743988 115.27946114 -111.66419361 116.11929042 -113.25003052 116.96084595 C-139.10571963 130.63092029 -139.10571963 130.63092029 -151.7890625 127.859375 C-161.80993924 124.45227691 -169.100734 118.13736678 -173.9921875 108.8203125 C-176.30382355 100.41436321 -176.11004017 92.76199151 -171.8671875 85.0078125 C-162.86751636 73.95107367 -150.69208458 67.45613497 -138.45703125 60.58203125 C-132.61216384 57.29782913 -126.83361357 53.90625567 -121.0546875 50.5078125 C-109.18116053 43.55194467 -97.16404506 36.86830094 -85.11621094 30.22021484 C-80.53497442 27.68745109 -75.96329783 25.13767955 -71.39111328 22.58862305 C-65.82633938 19.48886571 -60.25467451 16.40165838 -54.6796875 13.3203125 C-53.00326172 12.3936377 -53.00326172 12.3936377 -51.29296875 11.44824219 C-48.02967435 9.64888212 -44.76184203 7.85808461 -41.4921875 6.0703125 C-40.51870361 5.53325684 -39.54521973 4.99620117 -38.54223633 4.44287109 C-26.25922981 -2.24165559 -13.50865289 -6.37537083 0 0 Z " fill="#030104" transform="translate(342.6796875,73.6796875)"/>
<path d="M0 0 C5.80672494 4.75095677 10.03569511 9.57906719 11.19921875 17.1875 C11.27785156 18.198125 11.35648437 19.20875 11.4375 20.25 C11.52386719 21.260625 11.61023438 22.27125 11.69921875 23.3125 C11.74805917 26.13773035 11.41887484 28.51415103 10.75 31.25 C11.74 30.92 12.73 30.59 13.75 30.25 C22.58830512 30.18954648 29.96875191 30.98068352 36.68359375 36.9765625 C42.31318861 42.85194009 44.85345947 48.93616157 45 57.0625 C44.93714866 59.93794899 44.52196167 62.4796537 43.75 65.25 C44.71679688 65.19199219 45.68359375 65.13398438 46.6796875 65.07421875 C56.06763439 64.74889386 63.31767765 65.38402615 70.5859375 71.89453125 C76.73640078 78.54003182 78.21403113 84.88813752 77.9375 93.6875 C77.92396484 94.51443359 77.91042969 95.34136719 77.89648438 96.19335938 C77.86146992 98.2125264 77.80767562 100.23135318 77.75 102.25 C78.36746094 102.15460938 78.98492187 102.05921875 79.62109375 101.9609375 C88.96649555 100.7376429 95.89833676 101.86426981 103.66796875 107.40234375 C109.31487642 112.41357701 112.45768642 118.1336498 112.98828125 125.60546875 C113.13767018 133.31865496 112.96214238 139.55546649 108.75 146.25 C108.34910156 146.93449219 107.94820312 147.61898437 107.53515625 148.32421875 C101.72314672 157.16858108 91.08295017 162.93863153 80.8828125 165.05078125 C79.54902184 165.23740014 78.21285386 165.4076737 76.875 165.5625 C75.82119141 165.68540405 75.82119141 165.68540405 74.74609375 165.81079102 C66.42334547 166.64825795 60.40823116 165.34682696 53.4765625 160.6796875 C49.39220572 157.29761831 47.05916381 153.03247433 46.4765625 147.7890625 C46.18236692 139.34791235 48.29535621 132.89956839 51.75 125.25 C51.11835938 125.4665625 50.48671875 125.683125 49.8359375 125.90625 C41.46489248 128.5116473 31.82166313 130.40179938 23.5 126.87109375 C18.2782317 123.79292067 14.76710529 119.98282556 12.75 114.25 C11.64174717 105.92458847 13.73597671 98.95997921 16.75 91.25 C16.09515625 91.4665625 15.4403125 91.683125 14.765625 91.90625 C6.66945786 94.37626709 -1.30632902 95.74242898 -9.5625 93.25 C-14.98667231 89.21340665 -20.14888102 84.13199361 -21.25 77.25 C-21.3302061 69.69725931 -19.0803443 63.17447024 -16.25 56.25 C-16.84167969 56.45496094 -17.43335938 56.65992188 -18.04296875 56.87109375 C-26.57800977 59.78108327 -34.52015639 61.999547 -43.2578125 58.4296875 C-48.58090176 55.27758366 -52.4301585 50.11108577 -54.25 44.25 C-55.61993738 32.02150633 -53.34388431 21.43137503 -45.9375 11.375 C-33.6300918 -3.11212197 -17.75742676 -9.56169133 0 0 Z " fill="#030104" transform="translate(98.25,275.75)"/>
</svg>
