<svg width="45" height="46" viewBox="0 0 45 46" fill="none" xmlns="http://www.w3.org/2000/svg">
<circle cx="22.5" cy="23.22" r="22.5" fill="white"/>
<path d="M20.3525 15.1451L18.1248 17.291C17.4579 17.4674 16.8388 17.7907 16.3157 18.2359L15.1561 19.2312C14.7115 19.6133 14.1317 19.8233 13.5344 19.8233H12.6713V25.1986C13.5606 25.2238 14.4063 25.5724 15.0384 26.1813L16.5903 27.6763L16.8955 27.9703L18.0725 29.1042C18.3428 29.3645 18.7875 29.3645 19.0578 29.1042C19.1319 29.0328 19.1885 28.9488 19.219 28.8606C19.3411 28.5372 19.6245 28.2937 19.9732 28.2181C20.322 28.1425 20.6882 28.2433 20.941 28.491L21.4118 28.9362C21.9175 29.4233 22.7371 29.4233 23.2384 28.9362C23.4738 28.7094 23.6002 28.4196 23.6133 28.1215C23.6307 27.7519 23.8574 27.4244 24.2062 27.2648C24.5549 27.1052 24.9603 27.1388 25.2699 27.353C25.6796 27.6343 26.2507 27.5965 26.6169 27.2438C27.0267 26.849 27.0267 26.2107 26.6169 25.8202L23.3125 22.637L21.7518 24.0228C20.5617 25.0811 18.7352 25.0978 17.5233 24.0606C16.1413 22.8763 16.1108 20.8102 17.4535 19.5881L20.5094 16.8081C21.7039 15.7246 23.282 15.1199 24.9255 15.1199C26.4992 15.1199 28.0206 15.6784 29.1933 16.6821L30.5055 17.8075H32.2013H33.945H35.6888C36.0724 17.8075 36.3863 18.1099 36.3863 18.4795V27.2144C36.3863 27.9577 35.7629 28.5582 34.9913 28.5582H33.5963C33.0819 28.5582 32.6285 28.2895 32.3887 27.8863H28.6876C28.5394 28.1677 28.3432 28.4364 28.0991 28.6716C27.3536 29.3897 26.3205 29.6711 25.3527 29.5157C25.1957 29.8223 24.9821 30.1078 24.7162 30.364C23.5261 31.5105 21.6647 31.6238 20.3394 30.7042C19.2452 31.5777 17.6148 31.5231 16.5903 30.532L15.4177 29.3981L15.1125 29.1042L13.5606 27.6091C13.3208 27.3782 13.0069 27.2438 12.6713 27.2186C12.6713 27.9577 12.0435 28.5582 11.2763 28.5582H9.88127C9.10966 28.5582 8.48627 27.9577 8.48627 27.2144V18.4795C8.48627 18.1099 8.80014 17.8075 9.18377 17.8075H10.9275H12.6713H13.5344C13.6216 17.8075 13.7044 17.7781 13.7655 17.7236L14.9207 16.7325C16.137 15.6952 17.702 15.1199 19.328 15.1199H19.777C19.9689 15.1199 20.165 15.1283 20.3525 15.1451ZM32.2013 25.8706V19.8233H30.1088C29.8516 19.8233 29.6031 19.7309 29.4156 19.5671L27.807 18.1897C27.0136 17.5094 25.9892 17.1356 24.9255 17.1356C23.8182 17.1356 22.7545 17.543 21.948 18.2737L18.8921 21.0537C18.4431 21.4653 18.4518 22.1582 18.9139 22.553C19.3193 22.9015 19.934 22.8931 20.3307 22.5404L23.4651 19.7519C23.8879 19.374 24.5506 19.3991 24.9429 19.8107C25.3353 20.2222 25.3091 20.8564 24.8819 21.2343L24.847 21.2679L28.0904 24.3923C28.5263 24.8123 28.8097 25.3288 28.9361 25.8664H32.1969L32.2013 25.8706ZM11.2763 26.5425C11.2763 26.3643 11.2028 26.1934 11.072 26.0674C10.9412 25.9413 10.7638 25.8706 10.5788 25.8706C10.3938 25.8706 10.2164 25.9413 10.0856 26.0674C9.95475 26.1934 9.88127 26.3643 9.88127 26.5425C9.88127 26.7207 9.95475 26.8916 10.0856 27.0176C10.2164 27.1436 10.3938 27.2144 10.5788 27.2144C10.7638 27.2144 10.9412 27.1436 11.072 27.0176C11.2028 26.8916 11.2763 26.7207 11.2763 26.5425ZM34.2938 27.2144C34.4788 27.2144 34.6562 27.1436 34.787 27.0176C34.9178 26.8916 34.9913 26.7207 34.9913 26.5425C34.9913 26.3643 34.9178 26.1934 34.787 26.0674C34.6562 25.9413 34.4788 25.8706 34.2938 25.8706C34.1088 25.8706 33.9314 25.9413 33.8006 26.0674C33.6698 26.1934 33.5963 26.3643 33.5963 26.5425C33.5963 26.7207 33.6698 26.8916 33.8006 27.0176C33.9314 27.1436 34.1088 27.2144 34.2938 27.2144Z" fill="#17344E"/>
</svg>
