<svg width="271" height="33" fill="none" xmlns="http://www.w3.org/2000/svg"><g clip-path="url(#a)"><g clip-path="url(#b)"><g clip-path="url(#c)"><path d="M30.709 15.39c0 8.46-6.859 15.32-15.319 15.32S.071 23.85.071 15.39 6.93.071 15.39.071s15.319 6.859 15.319 15.32z" fill="#3D76AB" stroke="#fff" stroke-width=".142"/><path d="M14.087 1.33c.092-.175.148-.279.355-.429a.136.136 0 0 1 .052-.023c.313-.065.52-.085.896-.107.391-.005.645.018 1.166.113.268.049.436.089.807.221a.145.145 0 0 0 .038.008c.381.03.51.02.72-.001.539.008.579.056.735.126a.186.186 0 0 0 .009.004c.034.013.274.105.38.197.083.073.151.269.182.368a.133.133 0 0 1-.016.11 4.692 4.692 0 0 1-.166.248c-.057.073-.313.268-.384.313-.072.044-.356.083-.527.142-.17.059-.483.18-.554.197-.072.016-.612.156-.683.187-.071.03-.47.154-.54.185-.072.03-.214.08-.342.111-.09.022-.232.086-.306.12a.138.138 0 0 0-.07.076l-.16.423a.149.149 0 0 0-.007.02c-.04.176-.055.273-.14.487a2.77 2.77 0 0 1-.109.344.138.138 0 0 1-.122.087c-.048.002-.09.002-.148-.002a.18.18 0 0 0-.065.01.193.193 0 0 1-.168-.024.367.367 0 0 1-.131-.162.13.13 0 0 1-.01-.052V2.645a.138.138 0 0 0-.01-.049c-.063-.17-.126-.269-.303-.431l-.385-.427c-.08-.119-.062-.213-.003-.387a.159.159 0 0 1 .009-.022zM9.56 1.899c-.082-.342-.136-.513-.227-.541-.02-.006-.04.001-.06.01-4.596 2.318-6.392 4.34-8.382 9.117a.146.146 0 0 0-.002.11c.044.11.139.356.15.443.014.114.014.597 0 .756-.015.159-.171 1.093-.171 1.223 0 .13-.029.951 0 1.096.028.144.284 1.12.341 1.223.057.102.285.7.455.839.171.14.441.386.783.356.34-.031 1.066-.24 1.251-.356.185-.116.783-.666.953-.84.169-.17 1.13-1.407 1.152-1.435l.001-.002.88-1.077a.157.157 0 0 0 .003-.005c.037-.05.597-.813.653-1.022a8.36 8.36 0 0 0 .17-.981c.014-.202-.057-.795 0-.968.057-.173.285-.495.427-.64.142-.144.555-.467.668-.554.114-.088.797-.467.968-.598.163-.125.563-.43.595-.453l.004-.003c.046-.033.77-.541.908-.667.143-.13.214-.354.256-.655.043-.3.029-.48 0-.597a1.983 1.983 0 0 0-.256-.526c-.1-.13-.47-.439-.554-.498a3.768 3.768 0 0 0-.669-.285c-.17-.045-.684-.189-.84-.128-.076.03-.182.137-.267.234-.07.08-.268.152-.372.127a2.707 2.707 0 0 1-.27-.076c-.123-.047-.239-.376-.174-.562a11.095 11.095 0 0 1 .344-.647c.071-.102.313-.297.47-.413.156-.116.456-.439.554-.554.078-.092.19-.266.243-.352a.13.13 0 0 0 .015-.1zM21.454 2.513l1.179-.446c.062-.023.092-.035.124-.032.032.002.06.019.117.052 4.331 2.508 6.873 6.512 7.597 11.044.013.079.02.118 0 .158-.02.04-.048.056-.105.089a2.233 2.233 0 0 1-.019.01.246.246 0 0 1-.052.025.235.235 0 0 1-.056.006 2.3 2.3 0 0 1-.166 0 .26.26 0 0 0-.096.006c-.025.009-.038.02-.066.043a.845.845 0 0 0-.097.1l-.016.018-.017.015-.263.225a.274.274 0 0 0-.018.016l-.015.018a5.045 5.045 0 0 1-.184.21c-.071.073-.128.097-.228.142-.08.036-.298.078-.38.094h-.002l-.062.015a.805.805 0 0 1-.352-.01 1.082 1.082 0 0 1-.394-.266 2.165 2.165 0 0 1-.228-.446l-.005-.016-.004-.01a6.08 6.08 0 0 1-.109-.286c-.043-.125-.028-.144-.1-.327a9.743 9.743 0 0 0-.21-.477l-.003-.006-.003-.007-.224-.42-.196-.28-.004-.005-.003-.004a.678.678 0 0 0-.153-.152c-.057-.026-.185 0-.242 0-.057 0-.227.04-.299.071a.533.533 0 0 0-.199.156c-.056.072-.17.354-.213.541-.043.187-.014.424 0 .583.014.153.12.499.128.525v.003c.01.03.158.485.2.582.042.1.17.339.255.455.08.109.273.35.296.38a.077.077 0 0 0 .005.007l.202.24.025.027c.008.007.015.011.028.02.07.046.251.159.397.18.185.025 2.006.068 2.148.056a.583.583 0 0 0 .19-.045h.001l.05-.023-.004.002.15-.06a.23.23 0 0 1 .044-.015c.013-.003.021-.003.038-.003a.344.344 0 0 1 .211.067l.03.02.025.028c.065.078.099.132.104.208 0 .011.001.017-.002.033a.116.116 0 0 1-.01.033.974.974 0 0 1-.3.367c-.257.201-.627.381-.826.569-.199.187-.512.623-.626.753-.113.13-.71.638-.796.754-.085.116-.256.567-.299.74-.043.173-.085.61 0 .925.085.315.27.353.299.71.028.359.057.923 0 1.195-.057.273-.17.667-.299.925-.128.258-.128.41-.54.925-.413.514-.54.51-.854.967-.313.457-.327.552-.64 1.01-.299.436-1.012 1.167-1.076 1.232a.22.22 0 0 1-.004.005l-.004.004-.002.002a2.42 2.42 0 0 1-.535.435c-.299.168-.967-.183-1.352-.44-.384-.26-.569-.454-.91-.925-.325-.45-.663-1.243-.694-1.318a.421.421 0 0 0-.006-.011c-.058-.124-1.026-2.174-1.177-2.81-.157-.657-.37-5.133-.413-6.045-.042-.904.043-1.194-.26-2.617a.316.316 0 0 0-.012-.042c-.003-.01-.009-.02-.02-.04-.463-.83-.681-1.479-.948-2.845-.013-.065-.02-.097-.009-.13.01-.035.032-.056.075-.099.031-.031.071-.07.122-.116.156-.145.327-.31.526-.398.199-.088.597-.126.81-.128.214-.003.626.087.925.128.299.04.868.073 1.124.128.256.054.512.187.867.27.356.083.712.159.953.213.242.055.697.202.94.242.241.04.881.145 1.08.142.2-.002.512-.054.64-.142s.185-.268.185-.455-.156-.33-.313-.526c-.156-.197-.085-.145-.313-.313-.227-.169-.526-.216-.796-.27a7.515 7.515 0 0 0-1.024-.114c-.313-.012-.84.026-1.067 0-.228-.026-.782-.173-1.038-.228-.256-.055-.896-.225-1.238-.228-.341-.002-.512.07-.796.228-.285.159-.346.21-.683.341-.241.058-.398.072-.751.006a.267.267 0 0 1-.031-.007c-.009-.002-.016-.005-.03-.012-.137-.062-.225-.115-.3-.217-.032-.043-.048-.065-.053-.101-.005-.037.008-.068.033-.131l.35-.875c.094-.255.241-.6.241-.654 0-.048-.046-.151-.181-.285a.228.228 0 0 0-.063-.051c-.022-.01-.04-.013-.079-.017a1.104 1.104 0 0 0-.266.005.271.271 0 0 1-.057.004c-.015-.002-.024-.005-.043-.01a.587.587 0 0 1-.167-.088c-.06-.042-.089-.063-.105-.103-.015-.039-.008-.076.008-.152a2.32 2.32 0 0 1 .143-.483c.102-.22.478-.777.555-.89a.27.27 0 0 1 .014-.02c.004-.005.008-.01.017-.018l.765-.78c.242-.243.725-.552 1.166-.796.404-.223 1.237-.42 1.375-.45a.298.298 0 0 0 .02-.005l.018-.007zM8.179 28.436a1.053 1.053 0 0 1-.07.216.154.154 0 0 0 .058.194c1.018.617 1.664.88 2.847 1.148a.137.137 0 0 0 .135-.043c.17-.2.2-.31.33-.52.142-.23.526-.808.611-.995.085-.188.213-.71.285-.982.07-.272.184-.637.327-.924.142-.287.512-.71.796-1.067.285-.358.399-.61.54-.868.143-.258.456-.936.527-1.11.071-.172.299-.708.341-.924.043-.215-.184-.78-.199-.924-.014-.145-.1-.766-.142-.982-.043-.215-.2-.737-.27-.995-.071-.259-.441-.809-.54-.939-.1-.129-1.032-.963-1.053-.981v-.001H12.7l-.954-.884a.136.136 0 0 0-.027-.02l-1.397-.782a.137.137 0 0 0-.023-.01l-1.61-.55c-.315-.117-.485-.147-.762-.143a.136.136 0 0 0-.038.006c-.321.097-.443.195-.622.392-.28.268-.393.399-.54.612-.286.46-.313.628-.441.981-.127.35-.24.72-.325.989a.148.148 0 0 1-.005.014c-.03.068-.273.647-.353 1.117-.085.5-.128.652 0 1.01.128.357.299.41.356.469.057.06.327.182.327.44v.533c.023.25.11.392.292.64a2.949 2.949 0 0 0 .69.521c.184.082.412.154.64.213.227.059 1.379.41 1.379.54 0 .121-.517.436-.589.479a.151.151 0 0 0-.016.011c-.31.25-.357.41-.498.678a.142.142 0 0 0-.01.027c-.133.472-.082.781-.11.91-.029.13-.128.638-.157.925-.028.287-.042.638 0 .796.043.16.299.624.27.783z" fill="#fff" fill-opacity=".5"/><path d="M19.101 12.807c.014.063.323.652.537.718.213.065.22.012.456-.06.237-.072.402-.365.46-.422.107-.108.469-.37.59-.448.12-.078.323-.21.535-.35.211-.14.373-.225.506-.296.132-.072.27-.164.493-.19.222-.024.516.016.682.053.166.036.38.101.572.232.191.131.394.427.462.53.068.102.199.229.206.386a1.921 1.921 0 0 1-.046.401l-.09.35c-.01.06-.015.101-.018.14a.136.136 0 0 0 .077.129c.059.03.136.071.185.105.084.058.113.106.148.159a1.166 1.166 0 0 1 .143.23c.037.093.027.145-.012.21-.038.066-.165.038-.229.024h-.001a.85.85 0 0 1-.175-.073.988.988 0 0 1-.135-.104.137.137 0 0 1-.021-.024l-.074-.107a.141.141 0 0 0-.124-.06 1.453 1.453 0 0 1-.277-.004c-.166-.013-.301-.051-.399-.046-.097.005-.396.024-.474.05-.05.017-.2.06-.3.088a.145.145 0 0 0-.104.127 3.079 3.079 0 0 1-.158.75 6.589 6.589 0 0 0-.242.882c-.036.197-.213.825-.256.995-.042.168-.418.948-.43.973l-.001.002a8.86 8.86 0 0 1-.378.732c-.158.256-.448.634-.642.768-.193.135-1.052.398-1.207.456-.156.058-.94.27-1.093.32-.152.05-.487.191-.977.153a3.479 3.479 0 0 1-.897-.218.142.142 0 0 0-.163.043c-.114.145-.34.46-.42.742-.107.382-.12.375-.207.652-.086.277-.297.616-.37.74-.072.123-.18.313-.31.484-.122.159-.489.482-.537.524a5.84 5.84 0 0 1-.53.336 2.09 2.09 0 0 1-.543.167.135.135 0 0 1-.105-.026l-.067-.05a.142.142 0 0 0-.125-.022l-.437.128-.354.091a.142.142 0 0 1-.168-.083l-.026-.065a.133.133 0 0 0-.019-.033c-.101-.127-.183-.166-.342-.185a.144.144 0 0 0-.034 0c-.14.017-.225.017-.361.123l-.265.206a.155.155 0 0 1-.156.016.394.394 0 0 0-.286-.013l-.562.234a.139.139 0 0 1-.045.01c-.106.007-.167 0-.206-.038a.262.262 0 0 1-.065-.096 1.213 1.213 0 0 1-.039-.172.141.141 0 0 1 .02-.1l.031-.048a.128.128 0 0 0-.144-.192l-.546.16-.327.096a.142.142 0 0 1-.177-.097l-.032-.11a.142.142 0 0 0-.176-.096l-.118.035a.135.135 0 0 1-.066.003.397.397 0 0 1-.245-.134l-.151-.13a.142.142 0 0 0-.148-.024c-.25.105-.413.172-.684.19a.904.904 0 0 1-.348-.003.124.124 0 0 1-.091-.097.658.658 0 0 1 0-.291.135.135 0 0 1 .023-.056.955.955 0 0 1 .161-.174.137.137 0 0 1 .132-.024c.142.047.448.146.515.16.088.016.533.04.701.016.163-.022.775-.225.817-.24h.005l.475-.14.65-.19a10.349 10.349 0 0 0 1.371-.625l.576-.271a5.091 5.091 0 0 0 .49-.218c.123-.074.404-.316.555-.43.152-.114.279-.144.45-.235.163-.088.451-.366.476-.39l.004-.004.361-.327.462-.447.357-.4.362-.433.324-.465.255-.342.384-.578a.127.127 0 0 0 .012-.023c.058-.145.084-.37-.141-.452-.23-.084-.552.112-.64.187a7.656 7.656 0 0 1-.466.396c-.164.12-.599.297-.643.315a10.699 10.699 0 0 1-.85.25c-.243.046-.503.028-.707.013a6.176 6.176 0 0 1-.674-.128h-.002a31.327 31.327 0 0 1-.837-.229 5.842 5.842 0 0 1-.564-.205 42.048 42.048 0 0 1-.583-.307c-.052-.023-.506-.229-.558-.352-.04-.093-.023-.235-.01-.308a.125.125 0 0 1 .047-.077c.061-.048.184-.14.258-.175.102-.049.372-.073.45-.132.079-.06.088-.098.044-.206-.036-.088-.198-.2-.26-.241a.278.278 0 0 0-.05-.028l-.239-.096a.149.149 0 0 1-.078-.074.443.443 0 0 0-.151-.192l-.432-.26a15.92 15.92 0 0 1-.367-.264.117.117 0 0 1-.041-.051.445.445 0 0 1-.021-.179.133.133 0 0 1 .093-.122.794.794 0 0 1 .306-.035c.044.01.189.038.31.036.14-.002.174-.102.12-.246a.156.156 0 0 1-.005-.021c-.033-.154-.034-.259-.106-.358-.07-.097-.368-.331-.398-.355a.114.114 0 0 1-.006-.004l-.47-.404a6.841 6.841 0 0 1-.41-.329c-.067-.07-.131-.286-.131-.45 0-.164.082-.246.131-.26.05-.015.35 0 .455-.015.048-.007.126-.03.197-.052a.134.134 0 0 0 .075-.197 1.422 1.422 0 0 0-.087-.132 2.795 2.795 0 0 0-.162-.166c-.093-.09-.446-.408-.516-.518a.694.694 0 0 1-.066-.135c-.047-.15-.079-.24-.108-.369a3.488 3.488 0 0 0-.155-.54.131.131 0 0 1 0-.093.332.332 0 0 1 .234-.218.562.562 0 0 1 .271.022l.235.095c.05.014.093.007.155-.022a.13.13 0 0 0 .066-.151 3.455 3.455 0 0 0-.135-.445c-.069-.153-.154-.21-.21-.31-.055-.1-.066-.256-.147-.505-.081-.248-.179-.407-.144-.491.029-.072.492-.163.63-.189a.12.12 0 0 0 .067-.034c.042-.045.052-.084.05-.15l.001-.019c.003-.04.009-.197-.043-.437-.046-.22-.187-.667-.246-.849a.13.13 0 0 1 .034-.138c.118-.104.207-.107.342-.078a.136.136 0 0 1 .062.033l.296.266c.139.11.23.122.317.055.089-.067.106-.323.09-.433l-.002-.007a5.015 5.015 0 0 1 .002-.54c.004-.063.023-.146.031-.208l.068-.527.079-.337a.126.126 0 0 1 .025-.052c.064-.077.118-.096.205-.117a.262.262 0 0 1 .21.061c.016.012.028.03.037.048.081.179.108.29.135.46a.142.142 0 0 1-.012.084l-.072.148c0 .002-.001.002-.002.003a.861.861 0 0 0-.062.42c0 .038.005.19.039.362.035.179.094.33.106.359l.003.009c.021.062.25.746.31.853.062.112.207.244.24.315a18.91 18.91 0 0 1 .207.554c.016.065.148.576.194.662a38.69 38.69 0 0 0 .305.536l.264.498.2.335a3.434 3.434 0 0 0 .612.82c.11.091.368.293.492.36s.378.301.493.167c.108-.125-.1-.408-.128-.446a.202.202 0 0 1-.007-.01l-.232-.349a2.014 2.014 0 0 1-.25-.393c-.074-.174-.07-.398-.074-.556a1.484 1.484 0 0 0-.04-.274c-.015-.063-.03-.13.028-.161l.063-.033a.144.144 0 0 0 .074-.168l-.038-.13a2.396 2.396 0 0 1-.102-.342.998.998 0 0 1 .032-.35c.05-.148.081-.22.159-.268a2.67 2.67 0 0 1 .4-.187c.085-.03.123-.127.093-.212a.773.773 0 0 1-.042-.237 5.787 5.787 0 0 1-.013-.458c0-.054.032-.102.081-.123.13-.055.22-.074.348-.096a.136.136 0 0 0 .082-.047c.055-.067.162-.207.206-.313.036-.088.061-.237.075-.34a.153.153 0 0 1 .128-.131c.161-.025.443-.08.514-.169.05-.062.025-.147-.012-.216-.04-.073-.034-.17.032-.219.097-.074.145-.101.206-.137h.001a.154.154 0 0 0 .061-.07c.07-.15.168-.238.299-.342a.134.134 0 0 1 .215.125 2.87 2.87 0 0 1-.104.462c-.058.198-.107.269-.13.397-.023.13-.063.392-.09.572-.026.18-.007.428 0 .478.007.05.064.243.09.385a7.114 7.114 0 0 0 .165.563c.016.06.249.91.343 1.17.098.27.15.31.258.457.107.147.21.3.283.378a5.364 5.364 0 0 1 .27.356l.317.388.004.004c.02.023.242.275.378.435a1.996 1.996 0 0 1 .25.383l.269.38.004.006c.029.046.39.62.46.766.074.152.211.701.224.764z" fill="#fff" stroke="#fff" stroke-width=".142"/></g></g></g><path d="M39.891 24V8.069h5.383c1.25 0 2.271.226 3.065.677.799.446 1.39 1.05 1.773 1.812.384.763.576 1.613.576 2.552 0 .938-.192 1.791-.576 2.559-.378.767-.964 1.38-1.758 1.836-.793.45-1.81.677-3.049.677h-3.858V16.47h3.796c.856 0 1.543-.148 2.061-.443.519-.296.895-.695 1.128-1.198.239-.508.358-1.082.358-1.72 0-.637-.12-1.208-.358-1.71-.233-.504-.612-.898-1.136-1.183-.523-.29-1.218-.436-2.084-.436H41.82V24h-1.929zm13.905 0V8.069h9.614V9.78h-7.685v5.383h7.188v1.712h-7.188v5.414h7.81V24h-9.74zm13.745 0h-2.023l5.85-15.931h1.991L79.21 24h-2.022l-4.761-13.41h-.124L67.54 24zm.747-6.223h8.152v1.711h-8.152v-1.711zm25.473-4.73h-1.929a4.01 4.01 0 0 0-1.626-2.52c-.399-.29-.842-.508-1.33-.653a5.313 5.313 0 0 0-1.525-.218 4.86 4.86 0 0 0-2.62.731c-.779.488-1.398 1.206-1.86 2.155-.456.949-.685 2.113-.685 3.493 0 1.379.229 2.543.685 3.492.462.95 1.081 1.667 1.86 2.155a4.86 4.86 0 0 0 2.62.731c.53 0 1.038-.073 1.525-.218.488-.145.931-.36 1.33-.645a4.086 4.086 0 0 0 1.626-2.528h1.93a6.428 6.428 0 0 1-.794 2.185 5.97 5.97 0 0 1-1.431 1.642c-.57.446-1.211.785-1.922 1.019-.705.233-1.46.35-2.263.35-1.36 0-2.568-.332-3.625-.996-1.058-.664-1.89-1.608-2.497-2.831-.607-1.224-.91-2.676-.91-4.356 0-1.68.303-3.133.91-4.357.606-1.224 1.439-2.167 2.497-2.831 1.057-.664 2.266-.996 3.624-.996.804 0 1.559.117 2.264.35.71.234 1.351.576 1.922 1.027.57.446 1.047.99 1.43 1.634.385.637.649 1.366.794 2.185zM96.88 24V8.069h9.614V9.78h-7.685v5.383h7.187v1.712h-7.187v5.414h7.81V24h-9.74zm32.694-7.965c0 1.68-.303 3.132-.91 4.356-.607 1.224-1.439 2.167-2.497 2.831-1.058.664-2.266.996-3.625.996s-2.567-.332-3.625-.996c-1.058-.664-1.89-1.608-2.497-2.831-.607-1.224-.91-2.676-.91-4.356 0-1.68.303-3.133.91-4.357.607-1.224 1.439-2.167 2.497-2.831 1.058-.664 2.266-.996 3.625-.996s2.567.332 3.625.996c1.058.664 1.89 1.607 2.497 2.831s.91 2.676.91 4.357zm-1.867 0c0-1.38-.231-2.544-.692-3.493-.457-.95-1.076-1.667-1.859-2.155-.778-.487-1.65-.731-2.614-.731a4.86 4.86 0 0 0-2.622.731c-.777.488-1.397 1.206-1.859 2.155-.456.949-.684 2.113-.684 3.493 0 1.379.228 2.543.684 3.492.462.95 1.082 1.667 1.859 2.155a4.86 4.86 0 0 0 2.622.731c.964 0 1.836-.244 2.614-.731.783-.488 1.402-1.206 1.859-2.155.461-.949.692-2.113.692-3.492zM132.817 24V8.069h5.569c1.11 0 2.025.192 2.746.576.721.378 1.258.889 1.61 1.532a4.31 4.31 0 0 1 .529 2.124c0 .684-.122 1.25-.365 1.695a2.85 2.85 0 0 1-.949 1.058c-.389.26-.812.452-1.268.576v.156c.487.03.977.202 1.47.513s.905.757 1.237 1.338c.332.58.498 1.291.498 2.131 0 .799-.182 1.517-.545 2.155-.363.638-.936 1.144-1.719 1.517s-1.802.56-3.057.56h-5.756zm1.929-1.711h3.827c1.26 0 2.155-.244 2.684-.732.534-.492.801-1.089.801-1.789a2.85 2.85 0 0 0-.412-1.493 2.988 2.988 0 0 0-1.175-1.105c-.508-.28-1.11-.42-1.805-.42h-3.92v5.539zm0-7.22h3.578c.581 0 1.105-.113 1.571-.341a2.75 2.75 0 0 0 1.121-.965c.28-.415.42-.902.42-1.462 0-.7-.244-1.294-.732-1.782-.487-.492-1.26-.739-2.318-.739h-3.64v5.29zm21.03-3.017c-.094-.788-.472-1.4-1.136-1.836-.664-.436-1.478-.653-2.442-.653-.706 0-1.323.114-1.852.342-.524.228-.933.542-1.229.941-.29.4-.435.853-.435 1.361 0 .426.101.791.303 1.097.207.3.472.552.793.755.322.197.659.36 1.012.49.352.124.676.225.972.303l1.618.436c.415.109.876.259 1.385.45a6.406 6.406 0 0 1 1.47.787 4 4 0 0 1 1.167 1.26c.306.513.459 1.143.459 1.89 0 .86-.226 1.639-.677 2.334-.446.694-1.1 1.247-1.961 1.657-.855.41-1.895.614-3.119.614-1.141 0-2.129-.184-2.964-.552-.829-.369-1.483-.882-1.96-1.54-.472-.66-.739-1.424-.801-2.295h1.991c.052.601.254 1.1.607 1.493.358.39.809.68 1.354.872.549.186 1.141.28 1.773.28.737 0 1.398-.12 1.984-.358.586-.244 1.05-.581 1.392-1.011.342-.436.514-.944.514-1.525 0-.53-.148-.96-.444-1.291-.295-.332-.684-.602-1.167-.81A12.25 12.25 0 0 0 152.82 17l-1.96-.56c-1.245-.358-2.23-.869-2.956-1.532-.726-.664-1.089-1.533-1.089-2.606 0-.892.241-1.67.723-2.334.488-.669 1.141-1.188 1.96-1.556.825-.373 1.745-.56 2.762-.56 1.027 0 1.939.184 2.738.553.799.363 1.431.86 1.898 1.493a3.72 3.72 0 0 1 .747 2.155h-1.867zM161.032 24V8.069h9.615V9.78h-7.686v5.383h7.188v1.712h-7.188v5.414h7.81V24h-9.739zm13.092 0V8.069h5.383c1.245 0 2.266.213 3.065.638.798.42 1.39.998 1.773 1.735.384.736.576 1.573.576 2.512 0 .939-.192 1.771-.576 2.497-.383.726-.972 1.297-1.765 1.711-.794.41-1.808.615-3.042.615h-4.356v-1.742h4.294c.85 0 1.535-.125 2.053-.374.524-.249.903-.601 1.136-1.058.239-.461.358-1.011.358-1.649 0-.638-.119-1.195-.358-1.672-.238-.477-.62-.846-1.143-1.105-.524-.264-1.216-.397-2.077-.397h-3.392V24h-1.929zm7.499-7.157 3.92 7.157h-2.24l-3.858-7.157h2.178zm6.802-8.774 4.73 13.41h.187l4.729-13.41h2.023L194.244 24h-1.991l-5.85-15.931h2.022zM201.859 24h-2.022l5.85-15.931h1.991L213.528 24h-2.023l-4.761-13.41h-.124L201.859 24zm.747-6.223h8.152v1.711h-8.152v-1.711zm10.671-7.997V8.07h11.948V9.78h-5.01V24h-1.929V9.78h-5.009zm27.704 6.255c0 1.68-.304 3.132-.91 4.356-.607 1.224-1.439 2.167-2.497 2.831-1.058.664-2.266.996-3.625.996s-2.567-.332-3.625-.996c-1.058-.664-1.89-1.608-2.497-2.831-.607-1.224-.91-2.676-.91-4.356 0-1.68.303-3.133.91-4.357.607-1.224 1.439-2.167 2.497-2.831 1.058-.664 2.266-.996 3.625-.996s2.567.332 3.625.996c1.058.664 1.89 1.607 2.497 2.831.606 1.224.91 2.676.91 4.357zm-1.867 0c0-1.38-.231-2.544-.692-3.493-.457-.95-1.076-1.667-1.859-2.155-.778-.487-1.65-.731-2.614-.731a4.86 4.86 0 0 0-2.622.731c-.778.488-1.397 1.206-1.859 2.155-.456.949-.684 2.113-.684 3.493 0 1.379.228 2.543.684 3.492.462.95 1.081 1.667 1.859 2.155a4.86 4.86 0 0 0 2.622.731c.964 0 1.836-.244 2.614-.731.783-.488 1.402-1.206 1.859-2.155.461-.949.692-2.113.692-3.492zM244.225 24V8.069h5.383c1.244 0 2.266.213 3.064.638.799.42 1.39.998 1.774 1.735.384.736.576 1.573.576 2.512 0 .939-.192 1.771-.576 2.497-.384.726-.972 1.297-1.766 1.711-.793.41-1.807.615-3.041.615h-4.356v-1.742h4.293c.851 0 1.535-.125 2.054-.374.524-.249.902-.601 1.136-1.058.238-.461.358-1.011.358-1.649 0-.638-.12-1.195-.358-1.672-.239-.477-.62-.846-1.144-1.105-.524-.264-1.216-.397-2.077-.397h-3.391V24h-1.929zm7.498-7.157L255.644 24h-2.24l-3.859-7.157h2.178zm4.609-8.774h2.21l4.418 7.437h.187l4.418-7.437h2.209l-5.756 9.366V24h-1.929v-6.565l-5.757-9.366z" fill="#fff"/><defs><clipPath id="a"><path fill="#fff" d="M0 0h30.78v30.78H0z"/></clipPath><clipPath id="b"><path fill="#fff" d="M0 0h30.78v30.78H0z"/></clipPath><clipPath id="c"><path fill="#fff" d="M0 0h30.78v30.78H0z"/></clipPath></defs></svg>