<svg width="451" height="55" viewBox="0 0 451 55" fill="none" xmlns="http://www.w3.org/2000/svg">
<g clip-path="url(#clip0_156_158)">
<g clip-path="url(#clip1_156_158)">
<g clip-path="url(#clip2_156_158)">
<path d="M51.1816 25.6501C51.1816 39.7507 39.7507 51.1816 25.6501 51.1816C11.5495 51.1816 0.118652 39.7507 0.118652 25.6501C0.118652 11.5495 11.5495 0.118652 25.6501 0.118652C39.7507 0.118652 51.1816 11.5495 51.1816 25.6501Z" fill="#3D76AB" stroke="white" stroke-width="0.237061"/>
<path d="M23.478 2.21529C23.632 1.92435 23.7244 1.75197 24.0697 1.50181C24.0955 1.48309 24.1252 1.47021 24.1564 1.46368C24.6786 1.35453 25.0241 1.32178 25.65 1.28403C26.3024 1.27561 26.7243 1.31485 27.5939 1.47368C28.0403 1.55399 28.3207 1.62102 28.9385 1.84207C28.9585 1.84923 28.9799 1.85383 29.0011 1.85543C29.6376 1.9033 29.852 1.88798 30.2016 1.85297C31.0993 1.86602 31.1658 1.94623 31.4272 2.06316C31.4318 2.06525 31.4364 2.06712 31.4412 2.06892C31.4987 2.09057 31.8986 2.24439 32.0744 2.39822C32.2135 2.51997 32.3271 2.8459 32.3778 3.01087C32.397 3.07356 32.3865 3.14078 32.3511 3.196C32.2751 3.31447 32.1403 3.52208 32.0744 3.60723C31.9796 3.72963 31.5528 4.05377 31.4343 4.12876C31.3158 4.20375 30.8417 4.26713 30.5572 4.36582C30.2727 4.46452 29.7512 4.66626 29.6326 4.69384C29.5141 4.72141 28.6133 4.9546 28.4948 5.0059C28.3762 5.05716 27.7125 5.26278 27.5939 5.31408C27.4754 5.36534 27.2383 5.44854 27.025 5.49985C26.8737 5.53621 26.6389 5.64213 26.5152 5.70068C26.4616 5.72605 26.4206 5.77152 26.3994 5.82689L26.1302 6.53087C26.1262 6.54149 26.1229 6.55244 26.1204 6.56349C26.0542 6.85868 26.0277 7.0204 25.8871 7.37652C25.8274 7.60627 25.7824 7.7523 25.7056 7.9494C25.6725 8.03426 25.5922 8.09197 25.5012 8.09533C25.4223 8.09822 25.3502 8.09799 25.255 8.09178C25.2186 8.08941 25.1822 8.09557 25.1473 8.10638C25.0664 8.13141 25.0067 8.12847 24.9215 8.09884C24.9014 8.09182 24.8827 8.0813 24.8658 8.06831C24.7627 7.98899 24.7045 7.92593 24.6481 7.79758C24.636 7.77023 24.6307 7.74045 24.6307 7.71058V6.5468V5.31408V4.40711C24.6307 4.37979 24.626 4.35257 24.6164 4.32697C24.5109 4.04313 24.4046 3.87804 24.1091 3.60723L23.4691 2.89604C23.334 2.69842 23.3656 2.5407 23.4629 2.25048C23.467 2.23842 23.4721 2.22653 23.478 2.21529Z" fill="white" fill-opacity="0.5"/>
<path d="M15.9336 3.16407C15.7975 2.59521 15.7071 2.30937 15.5558 2.26282C15.5227 2.25267 15.4873 2.26447 15.4564 2.28002C7.79502 6.14288 4.8015 9.512 1.4842 17.4751C1.46018 17.5327 1.45938 17.5985 1.48233 17.6566C1.55477 17.8398 1.71253 18.2505 1.73072 18.396C1.75442 18.5857 1.75442 19.3917 1.73072 19.6564C1.70701 19.921 1.44624 21.4778 1.44624 21.6951C1.44624 21.9123 1.39883 23.2795 1.44624 23.5205C1.49366 23.7614 1.92036 25.3893 2.01519 25.5592C2.11001 25.729 2.48931 26.7247 2.77378 26.9578C3.05826 27.191 3.50867 27.6018 4.07762 27.5505C4.64657 27.4992 5.85557 27.1514 6.16375 26.9578C6.47193 26.7643 7.46759 25.8475 7.75206 25.5592C8.03326 25.2741 9.63461 23.2133 9.67159 23.1657C9.67244 23.1646 9.67273 23.1642 9.6733 23.1636L9.67406 23.1627L11.1384 21.3676C11.1408 21.3647 11.143 21.3619 11.1453 21.3588C11.2071 21.2749 12.1408 20.0039 12.2325 19.6564C12.3273 19.2969 12.4933 18.3564 12.517 18.0206C12.5407 17.6849 12.4222 16.697 12.517 16.4086C12.6118 16.1203 12.9911 15.5828 13.2282 15.3418C13.4652 15.1009 14.1527 14.5634 14.3424 14.4173C14.532 14.2712 15.6699 13.6389 15.9544 13.4217C16.2275 13.2131 16.8939 12.7058 16.9467 12.6656C16.9492 12.6637 16.9513 12.6622 16.9538 12.6604C17.0301 12.6069 18.2377 11.7592 18.4672 11.5489C18.7043 11.3316 18.8228 10.9601 18.8939 10.4584C18.965 9.95668 18.9413 9.65627 18.8939 9.46273C18.8465 9.2692 18.6332 8.80285 18.4672 8.58561C18.3013 8.36837 17.6849 7.85461 17.5427 7.7559C17.4004 7.65718 16.713 7.35678 16.4285 7.28177C16.144 7.20677 15.289 6.96643 15.0298 7.06842C14.9022 7.11863 14.7256 7.29576 14.5832 7.45786C14.4661 7.59109 14.1363 7.711 13.964 7.66923C13.793 7.62783 13.6082 7.57943 13.5126 7.54254C13.3086 7.46379 13.1158 6.91675 13.224 6.60568C13.2267 6.59799 13.2299 6.59079 13.2336 6.58353C13.2849 6.48155 13.6862 5.6864 13.7971 5.52752C13.9156 5.35769 14.3186 5.03358 14.5794 4.84004C14.8402 4.6465 15.3404 4.10795 15.504 3.9155C15.6337 3.76283 15.8209 3.47227 15.9087 3.32884C15.9389 3.27949 15.947 3.22036 15.9336 3.16407Z" fill="white" fill-opacity="0.5"/>
<path d="M35.7573 4.1878L37.7212 3.44523C37.8242 3.40632 37.8756 3.38687 37.9289 3.39123C37.982 3.39558 38.0293 3.42295 38.1238 3.47766C45.3422 7.65759 49.5776 14.3313 50.7857 21.885C50.8065 22.0158 50.817 22.0812 50.7847 22.148C50.753 22.2148 50.7055 22.2419 50.6102 22.2959C50.6003 22.3016 50.5899 22.3074 50.579 22.3134C50.5382 22.3359 50.5178 22.3471 50.4912 22.3545C50.4647 22.3619 50.4424 22.3629 50.3978 22.3647C50.3182 22.368 50.2362 22.3674 50.1219 22.364C50.0427 22.3616 50.0029 22.3604 49.9616 22.3749C49.9204 22.3893 49.8976 22.4085 49.8516 22.447C49.7985 22.4918 49.7507 22.5423 49.6895 22.6136C49.6762 22.6293 49.6696 22.6371 49.6629 22.6436C49.6563 22.6501 49.6492 22.6562 49.635 22.6686L49.1969 23.0439C49.1817 23.0569 49.1741 23.0634 49.1675 23.0703C49.1604 23.0772 49.1542 23.085 49.1409 23.1007C49.0807 23.1726 48.9281 23.3528 48.8347 23.4493C48.7161 23.5717 48.6213 23.6114 48.4554 23.6864C48.3221 23.7466 47.959 23.8172 47.8215 23.8426C47.8215 23.8426 47.8219 23.8426 47.8186 23.8432C47.8153 23.8439 47.7821 23.852 47.7157 23.8682C47.6285 23.8894 47.4327 23.9173 47.1278 23.8523C46.9737 23.8195 46.5609 23.5391 46.4722 23.4089C46.4471 23.3722 46.4207 23.3305 46.3929 23.2834C46.198 22.952 46.1153 22.7328 46.092 22.6654C46.0865 22.6495 46.0838 22.6415 46.0827 22.6385C46.0815 22.6355 46.0797 22.6309 46.076 22.6218C46.0472 22.5511 45.9546 22.3207 45.8951 22.1455C45.824 21.936 45.8477 21.9045 45.7292 21.6002C45.6205 21.3214 45.4124 20.8768 45.3784 20.8044L45.3783 20.8043C45.376 20.7995 45.3749 20.797 45.3736 20.7944C45.3722 20.7917 45.3709 20.7892 45.3682 20.7841L44.9943 20.083L44.668 19.617C44.6652 19.6129 44.6638 19.6109 44.6619 19.6084C44.6601 19.6059 44.6588 19.6043 44.6565 19.6012C44.626 19.5623 44.4858 19.3868 44.4016 19.3482C44.3068 19.3046 44.0934 19.3482 43.9986 19.3482C43.9038 19.3482 43.6193 19.4154 43.5008 19.4667C43.3823 19.518 43.2637 19.6089 43.1689 19.7275C43.0741 19.846 42.8844 20.3162 42.8133 20.6283C42.7422 20.9404 42.7896 21.3356 42.8133 21.6002C42.8361 21.8549 43.0125 22.4315 43.0259 22.4748L43.0267 22.4773L43.0275 22.4801C43.044 22.5309 43.2898 23.289 43.3585 23.4493C43.4297 23.6153 43.643 24.0144 43.7853 24.2079C43.9186 24.3894 44.2394 24.7931 44.2791 24.8429C44.281 24.8454 44.282 24.8466 44.2831 24.8479C44.2841 24.8492 44.2852 24.8504 44.2873 24.853L44.624 25.2529C44.6435 25.2759 44.6531 25.2874 44.6658 25.2987C44.6785 25.31 44.6895 25.3173 44.7114 25.3318C44.828 25.409 45.1303 25.5959 45.3736 25.6303C45.6817 25.6738 48.7161 25.7449 48.9532 25.7251C49.112 25.7118 49.2177 25.6738 49.2699 25.6501L49.2718 25.6493C49.3254 25.6252 49.3519 25.6131 49.3543 25.6121C49.3562 25.6113 49.3481 25.6145 49.3481 25.6145L49.3496 25.6141L49.5994 25.5141C49.6335 25.5003 49.6511 25.4934 49.6724 25.4892C49.6938 25.4849 49.707 25.4847 49.7345 25.4843C49.8701 25.4823 49.9621 25.5158 50.0868 25.5959V25.596C50.1105 25.611 50.1224 25.6186 50.1356 25.6306C50.1494 25.6425 50.1589 25.6542 50.1783 25.6775C50.2864 25.8067 50.3433 25.8964 50.3514 26.0238C50.3528 26.0421 50.3533 26.0513 50.3485 26.0786C50.3438 26.1059 50.34 26.1152 50.3319 26.1337C50.2864 26.2398 50.1537 26.4899 49.8303 26.7445C49.4036 27.0802 48.7872 27.3806 48.4554 27.6927C48.1235 28.0048 47.6019 28.7319 47.4123 28.9491C47.2226 29.1664 46.227 30.012 46.0847 30.2055C45.9425 30.3991 45.658 31.1499 45.5869 31.4383C45.5158 31.7266 45.4447 32.4537 45.5869 32.9792C45.7292 33.5046 46.0373 33.5679 46.0847 34.1645C46.1322 34.761 46.1796 35.7015 46.0847 36.1558C45.9899 36.6101 45.8003 37.2661 45.5869 37.6967C45.3736 38.1273 45.3736 38.3803 44.6861 39.2376C43.9986 40.0949 43.7853 40.0871 43.2637 40.8496C42.7422 41.6121 42.7185 41.7702 42.1969 42.5327C41.6992 43.2605 40.5104 44.4778 40.4031 44.5872C40.3995 44.5909 40.3977 44.5927 40.3962 44.5943C40.395 44.5955 40.3932 44.5975 40.3901 44.6009L40.3873 44.6041C40.3283 44.6688 39.9513 45.0725 39.4945 45.33C38.9966 45.6106 37.8824 45.0257 37.2424 44.5952C36.6023 44.1646 36.2941 43.8404 35.7252 43.0543C35.1832 42.3053 34.6196 40.9824 34.5675 40.8589C34.5655 40.8541 34.5645 40.8517 34.5634 40.8494C34.5624 40.8471 34.5613 40.8447 34.5589 40.8398C34.4611 40.6331 32.8488 37.2169 32.596 36.1558C32.3352 35.0614 31.9796 27.6018 31.9085 26.0807C31.8381 24.5746 31.9804 24.0923 31.4734 21.719C31.4658 21.6835 31.462 21.6659 31.4558 21.6493C31.4496 21.6327 31.4407 21.6167 31.4229 21.5848C30.6507 20.2001 30.2862 19.1189 29.8411 16.8413C29.8201 16.7341 29.8097 16.6805 29.827 16.6239C29.8443 16.5671 29.8802 16.5314 29.9519 16.4599C30.0038 16.4081 30.0705 16.3438 30.1542 16.2664C30.415 16.0254 30.6995 15.7487 31.0314 15.6026C31.3633 15.4565 32.027 15.3931 32.3826 15.3892C32.7382 15.3854 33.4257 15.5354 33.9235 15.6026C34.4213 15.6698 35.3696 15.725 35.7963 15.8159C36.223 15.9069 36.6497 16.128 37.2424 16.2664C37.835 16.4047 38.4277 16.531 38.8307 16.622C39.2337 16.7129 39.9923 16.9577 40.3953 17.025C40.7983 17.0922 41.8651 17.2659 42.1969 17.262C42.5288 17.2581 43.0504 17.1711 43.2637 17.025C43.4771 16.8788 43.5719 16.5784 43.5719 16.2664C43.5719 15.9543 43.3111 15.7172 43.0504 15.3892C42.7896 15.0612 42.9081 15.1483 42.5288 14.8677C42.1495 14.5871 41.6517 14.5082 41.2013 14.4173C40.7509 14.3264 40.016 14.2475 39.4945 14.2276C38.9729 14.2078 38.0958 14.2712 37.7165 14.2276C37.3372 14.1841 36.4127 13.9393 35.9859 13.8483C35.5592 13.7574 34.4925 13.4729 33.9235 13.469C33.3546 13.4652 33.0701 13.5837 32.596 13.8483C32.1219 14.113 32.0198 14.1995 31.4581 14.4173C31.0567 14.5136 30.7946 14.5358 30.2067 14.4272C30.1808 14.4224 30.1679 14.42 30.1543 14.4157C30.1407 14.4115 30.1289 14.4062 30.1055 14.3956C29.8759 14.2923 29.7306 14.2038 29.6046 14.0339C29.5511 13.9618 29.5243 13.9256 29.5164 13.8645C29.5085 13.8033 29.5295 13.7508 29.5715 13.6459L30.1542 12.1889C30.3116 11.7631 30.5573 11.1894 30.5573 11.0984C30.5573 11.0184 30.4792 10.8462 30.2544 10.6233C30.2089 10.5781 30.1861 10.5555 30.1498 10.5382C30.1135 10.5209 30.0818 10.5174 30.0185 10.5105C29.8838 10.4957 29.7618 10.4972 29.5757 10.5188C29.5287 10.5243 29.5052 10.527 29.48 10.5246C29.4548 10.5221 29.4391 10.5171 29.4077 10.507C29.3153 10.4775 29.2323 10.4341 29.1293 10.3609C29.0309 10.2908 28.9817 10.2558 28.9558 10.1907C28.93 10.1256 28.9424 10.0629 28.9674 9.93741C29.013 9.70836 29.0925 9.37429 29.206 9.13083C29.376 8.76613 30.003 7.83648 30.1313 7.64749C30.1425 7.6309 30.1481 7.6226 30.1548 7.6144C30.1615 7.60624 30.1686 7.59894 30.1828 7.58443C30.3393 7.42461 31.0977 6.64994 31.4581 6.2861C31.8611 5.87921 32.6671 5.36545 33.402 4.95856C34.0749 4.58596 35.4635 4.25965 35.6928 4.20728C35.7094 4.20348 35.7178 4.20158 35.7256 4.19923C35.7333 4.19689 35.7413 4.19385 35.7573 4.1878Z" fill="white" fill-opacity="0.5"/>
<path d="M13.631 47.3924C13.6087 47.5166 13.5605 47.6484 13.5155 47.7536C13.4656 47.8698 13.5027 48.0101 13.611 48.0755C15.3089 49.1044 16.3844 49.543 18.3562 49.9896C18.439 50.0085 18.5266 49.9815 18.5817 49.917C18.8653 49.5837 18.915 49.4007 19.1308 49.0518C19.3678 48.6687 20.0079 47.7043 20.1501 47.3924C20.2924 47.0804 20.5057 46.211 20.6243 45.7567C20.7428 45.3024 20.9324 44.6938 21.1695 44.2158C21.4066 43.7378 22.0229 43.0344 22.497 42.4379C22.9712 41.8413 23.1608 41.4224 23.3979 40.9918C23.6349 40.5612 24.1565 39.4311 24.275 39.1427C24.3935 38.8543 24.7728 37.9613 24.8439 37.6018C24.9151 37.2423 24.5358 36.3019 24.5121 36.0609C24.4884 35.82 24.3461 34.7847 24.275 34.4252C24.2039 34.0657 23.9431 33.1964 23.8246 32.7658C23.7061 32.3352 23.0897 31.4184 22.9238 31.2012C22.7597 30.9863 21.2045 29.5967 21.1701 29.566C21.1693 29.5653 21.1691 29.5651 21.1686 29.5646L21.1679 29.564L19.5782 28.0911C19.5644 28.0784 19.5492 28.0673 19.5329 28.0582L17.2057 26.7549C17.1931 26.7479 17.1801 26.7421 17.1665 26.7374L14.4844 25.8199C13.958 25.6268 13.6743 25.576 13.2128 25.5823C13.1915 25.5826 13.1699 25.5859 13.1495 25.5922C12.615 25.7548 12.4111 25.9184 12.1138 26.2466C11.6458 26.6921 11.4592 26.9109 11.2129 27.2659C10.7371 28.0326 10.6914 28.3129 10.4781 28.9017C10.2665 29.4854 10.078 30.1007 9.93646 30.5495C9.934 30.5573 9.93125 30.5647 9.92807 30.5722C9.87957 30.6858 9.47382 31.6506 9.34016 32.4339C9.19792 33.2675 9.12681 33.5205 9.34016 34.117C9.55352 34.7136 9.83799 34.8006 9.93281 34.8993C10.0276 34.998 10.4781 35.2036 10.4781 35.6342V36.5016C10.4781 36.5082 10.4783 36.5147 10.4789 36.5214C10.5159 36.9369 10.6616 37.1743 10.9648 37.5867C10.9721 37.5967 10.9804 37.6063 10.9892 37.6149C11.354 37.9739 11.6079 38.1583 12.1138 38.4552C12.4223 38.5923 12.8013 38.7121 13.1805 38.8108C13.5598 38.9095 15.48 39.4944 15.48 39.7117C15.48 39.9137 14.6186 40.4372 14.4983 40.5094C14.4887 40.5151 14.4798 40.5213 14.4712 40.5283C13.9549 40.9445 13.8767 41.2103 13.6425 41.6574C13.6349 41.6718 13.6286 41.6874 13.6242 41.7031C13.4029 42.4898 13.4883 43.0051 13.4413 43.2202C13.3939 43.4374 13.228 44.283 13.1805 44.7611C13.1331 45.2391 13.1094 45.8239 13.1805 46.0886C13.2517 46.3532 13.6784 47.1278 13.631 47.3924Z" fill="white" fill-opacity="0.5"/>
<path d="M31.8357 21.3456C31.8578 21.4507 32.3733 22.4324 32.7295 22.5412C33.0856 22.65 33.0961 22.5618 33.4908 22.4417C33.8854 22.3216 34.1605 21.8334 34.2553 21.7384C34.435 21.5583 35.0382 21.12 35.2395 20.9906C35.4406 20.8613 35.7784 20.6428 36.131 20.4083C36.4837 20.1738 36.7538 20.0338 36.9744 19.9141C37.1949 19.7945 37.4254 19.6411 37.7961 19.5993C38.1668 19.5574 38.6565 19.6251 38.9332 19.6861C39.2099 19.7471 39.5677 19.8551 39.8866 20.0737C40.2056 20.2923 40.5425 20.7855 40.656 20.9561C40.7694 21.1266 40.9884 21.3382 41.0007 21.6C41.0124 21.8471 40.9331 22.222 40.9246 22.2614C40.924 22.2638 40.9235 22.266 40.9229 22.2684L40.7747 22.852C40.7569 22.9521 40.7475 23.0207 40.7428 23.0835C40.7359 23.1747 40.7909 23.258 40.8724 23.2996C40.97 23.3494 41.0987 23.4182 41.1794 23.4744C41.3199 23.5721 41.369 23.6522 41.4273 23.7393C41.4304 23.744 41.4336 23.7484 41.437 23.7528C41.4658 23.7903 41.6105 23.9825 41.6657 24.1225C41.7272 24.2781 41.7101 24.3654 41.6453 24.4743C41.581 24.5823 41.3704 24.5364 41.2637 24.5132L41.2613 24.5127C41.1707 24.4929 41.0295 24.4225 40.9907 24.4026C40.9838 24.3991 40.9772 24.3952 40.9708 24.391C40.8876 24.3359 40.8351 24.2992 40.745 24.2183C40.7317 24.2065 40.7201 24.1931 40.7099 24.1784L40.5865 24.0006C40.5398 23.9334 40.4617 23.8951 40.3799 23.8997C40.2224 23.9085 40.1027 23.9139 39.9188 23.8932C39.6414 23.8724 39.4166 23.808 39.2539 23.8163C39.0914 23.8245 38.5937 23.8564 38.4632 23.8997C38.3793 23.9276 38.1304 23.9996 37.9634 24.0474C37.8674 24.0749 37.7992 24.1595 37.7903 24.2591C37.7475 24.7401 37.6762 25.0349 37.5264 25.5081C37.3224 26.0993 37.184 26.6492 37.1238 26.9774C37.0636 27.3057 36.7682 28.3524 36.6971 28.6369C36.6271 28.9167 36.0001 30.216 35.9795 30.2587C35.979 30.2598 35.9788 30.2601 35.9784 30.261L35.9781 30.2616C35.9587 30.3037 35.6055 31.0673 35.3489 31.4819C35.085 31.9083 34.6013 32.5374 34.279 32.7617C33.9568 32.9861 32.5248 33.4255 32.2659 33.5215C32.0069 33.6175 30.6994 33.9707 30.4458 34.0547C30.1923 34.1388 29.6326 34.3737 28.8161 34.3099C28.217 34.2631 27.6048 34.0542 27.3214 33.9464C27.224 33.9093 27.1132 33.9354 27.0493 34.0176C26.8609 34.2599 26.4834 34.7846 26.3509 35.2545C26.1715 35.8909 26.1503 35.8798 26.0056 36.3413C25.8609 36.8029 25.5106 37.3674 25.3892 37.5741C25.2679 37.7807 25.0871 38.0971 24.8707 38.3808C24.6687 38.6457 24.0571 39.1848 23.9768 39.2552C23.9709 39.2604 23.9652 39.2649 23.9588 39.2694C23.889 39.3185 23.4438 39.6293 23.0926 39.8158C22.8031 39.9695 22.3777 40.0586 22.1885 40.0928C22.1265 40.104 22.0632 40.0878 22.0128 40.0501L21.9018 39.967C21.8421 39.9223 21.7647 39.9084 21.6931 39.9294L20.9652 40.1427L20.3745 40.2957C20.2596 40.3255 20.1404 40.2657 20.0956 40.1558L20.0514 40.0477C20.0435 40.0284 20.0331 40.0101 20.0202 39.9937C19.8517 39.7808 19.7146 39.717 19.4502 39.6842C19.4313 39.6819 19.4122 39.6821 19.3934 39.6844C19.1593 39.7128 19.0178 39.7131 18.7915 39.8902L18.3493 40.2329C18.2754 40.2902 18.1758 40.2961 18.0896 40.2597C17.9472 40.1996 17.8303 40.1875 17.6511 40.2258C17.6379 40.2286 17.6249 40.2328 17.6125 40.238L16.677 40.6287C16.6531 40.6387 16.6275 40.6448 16.6015 40.6463C16.4243 40.656 16.3227 40.6443 16.2578 40.5816C16.2125 40.5378 16.1702 40.4809 16.1493 40.4215C16.1293 40.3647 16.1098 40.2738 16.0855 40.1349C16.0754 40.0773 16.0876 40.018 16.119 39.9686L16.1707 39.8875C16.2767 39.721 16.1196 39.512 15.9302 39.5675L15.0202 39.8341L14.4742 39.9941C14.3486 40.0309 14.2169 39.9589 14.1801 39.8332L14.1268 39.6513C14.0899 39.5256 13.9583 39.4536 13.8326 39.4904L13.6369 39.5477C13.6011 39.5583 13.5632 39.5604 13.5266 39.5527C13.3542 39.5167 13.2524 39.4726 13.1184 39.3291L12.866 39.1116C12.7979 39.0528 12.7024 39.0378 12.6195 39.0727C12.2026 39.2486 11.9313 39.3594 11.4808 39.389C11.2014 39.4242 11.052 39.4218 10.9001 39.3846C10.8224 39.3656 10.7641 39.3015 10.7482 39.2231C10.7055 39.013 10.7174 38.8961 10.7468 38.738C10.753 38.7046 10.7667 38.6727 10.7869 38.6453C10.8806 38.5186 10.9546 38.4406 11.055 38.3551C11.1158 38.3033 11.1995 38.2894 11.2754 38.3144C11.5118 38.3925 12.0215 38.559 12.1332 38.5803C12.2798 38.6083 13.0224 38.6468 13.3024 38.6083C13.5727 38.5711 14.5932 38.2329 14.6636 38.2096C14.6663 38.2087 14.6688 38.2079 14.6715 38.2071L15.4636 37.975L16.5481 37.6573C16.5531 37.6558 16.5573 37.6545 16.5622 37.6527C16.6592 37.6172 17.8053 37.197 17.9783 37.1148C18.1452 37.0354 18.7237 36.6808 18.8106 36.6274C18.8182 36.6227 18.8256 36.6187 18.8337 36.615L19.7918 36.1647C19.7964 36.1625 19.801 36.1606 19.8057 36.1587C19.8735 36.1318 20.4134 35.9167 20.6071 35.8011C20.814 35.6776 21.2813 35.2747 21.5336 35.085C21.7859 34.8953 21.9982 34.8452 22.2832 34.6924C22.5556 34.5465 23.0349 34.0828 23.0769 34.0419C23.0791 34.0398 23.081 34.0381 23.0833 34.036L23.6852 33.4912L24.4552 32.7468L25.0498 32.0786L25.6539 31.3581L26.1925 30.5827L26.6185 30.0132L27.2577 29.0502C27.2657 29.0381 27.2727 29.0253 27.2781 29.0118C27.3751 28.7694 27.4174 28.396 27.0431 28.2585C26.6606 28.118 26.1232 28.4446 25.9764 28.5696C25.9746 28.5711 25.9733 28.5723 25.9716 28.5739C25.9349 28.6074 25.4749 29.0268 25.1996 29.2295C24.9274 29.4299 24.2021 29.7244 24.1285 29.754C24.1241 29.7558 24.1209 29.757 24.1165 29.7585C24.0328 29.7862 23.0982 30.0942 22.712 30.1697C22.3074 30.2489 21.8734 30.2181 21.5333 30.1939C21.2033 30.1705 20.4542 29.991 20.4105 29.9805C20.4091 29.9802 20.4085 29.98 20.4071 29.9797C20.3629 29.9681 19.2676 29.6816 19.0122 29.5987C18.7515 29.514 18.2697 29.3547 18.0721 29.2565C17.8861 29.1642 17.1968 28.796 17.1158 28.7527C17.1105 28.7498 17.1056 28.7474 17.1001 28.745C17.0141 28.7066 16.2571 28.3637 16.1695 28.1589C16.1029 28.0032 16.1314 27.7662 16.1529 27.6445C16.1619 27.5934 16.1904 27.5487 16.2313 27.5168C16.3337 27.437 16.538 27.283 16.6615 27.2243C16.8313 27.1434 17.2819 27.1023 17.4122 27.0043C17.5425 26.9063 17.5582 26.8424 17.4848 26.6619C17.4247 26.5143 17.1556 26.3289 17.0528 26.2595C17.0263 26.2415 16.9977 26.2258 16.968 26.2138L16.5706 26.0536C16.513 26.0304 16.4674 25.9852 16.4409 25.9291C16.3723 25.7845 16.3118 25.6999 16.1882 25.609L15.4689 25.1775C15.22 25.003 15.0789 24.901 14.857 24.7371C14.8269 24.7149 14.8015 24.6861 14.7883 24.651C14.7575 24.5689 14.7489 24.4821 14.7532 24.3534C14.7563 24.2594 14.8192 24.1774 14.9092 24.1499C15.0693 24.101 15.1931 24.0819 15.3734 24.0864C15.3887 24.0868 15.4039 24.0888 15.4189 24.0921C15.4924 24.1079 15.7329 24.1557 15.9342 24.1519C16.1693 24.1474 16.2242 23.9808 16.1366 23.7415C16.1323 23.7298 16.1286 23.7179 16.126 23.7057C16.072 23.4504 16.0699 23.2754 15.95 23.1097C15.8336 22.9489 15.3366 22.558 15.2859 22.5183C15.2829 22.516 15.2803 22.5138 15.2774 22.5113L14.4949 21.8383C14.491 21.835 14.4871 21.8318 14.4831 21.8287C14.4221 21.7827 13.9178 21.4009 13.8114 21.2908C13.6981 21.1736 13.5914 20.8138 13.5914 20.54C13.5914 20.2662 13.7281 20.1301 13.8099 20.1055C13.8918 20.0809 14.3918 20.1064 14.5685 20.0809C14.6489 20.0692 14.7787 20.0323 14.8962 19.9955C15.0354 19.9518 15.0965 19.7915 15.0214 19.6664C14.9713 19.5832 14.9173 19.4981 14.8769 19.447C14.8396 19.4 14.7289 19.2898 14.6062 19.1701C14.4512 19.0189 13.8625 18.4892 13.7462 18.3067C13.7057 18.243 13.6695 18.1701 13.6368 18.0812C13.5582 17.8318 13.5054 17.682 13.4568 17.4669C13.3752 17.0772 13.3089 16.8754 13.1977 16.5652C13.1799 16.5157 13.1783 16.4611 13.1974 16.412C13.272 16.2213 13.362 16.1427 13.5359 16.0642C13.5527 16.0566 13.5705 16.0512 13.5887 16.0484C13.7594 16.0214 13.8628 16.0377 14.0402 16.0856L14.432 16.2425C14.5149 16.2667 14.5866 16.2556 14.6901 16.2061C14.783 16.1616 14.8257 16.0546 14.8007 15.9547C14.7476 15.7427 14.6524 15.3851 14.5749 15.2126C14.4607 14.9584 14.3185 14.8636 14.2263 14.6971C14.134 14.5306 14.1149 14.2695 13.9796 13.8554C13.8444 13.4412 13.6824 13.1768 13.7397 13.0364C13.7884 12.917 14.5605 12.7645 14.7903 12.7215C14.8325 12.7136 14.8726 12.6959 14.9019 12.6646C14.9718 12.5901 14.9883 12.5243 14.9863 12.4159C14.9861 12.4051 14.9864 12.3943 14.9871 12.3834C14.9915 12.3178 15.0012 12.0545 14.9157 11.6543C14.8377 11.2891 14.6027 10.5436 14.5054 10.2402C14.479 10.158 14.4976 10.0664 14.5623 10.0093C14.7584 9.83669 14.9073 9.83185 15.1315 9.88054C15.1703 9.88893 15.2059 9.90795 15.2353 9.93455L15.7278 10.3789C15.9596 10.5602 16.1107 10.5812 16.2572 10.47C16.4045 10.3582 16.4334 9.93156 16.4059 9.74864C16.4052 9.74433 16.4046 9.74016 16.404 9.73613C16.3906 9.64324 16.3878 9.11403 16.4065 8.83567C16.4135 8.73127 16.4451 8.59354 16.4585 8.48975L16.5721 7.61182L16.7033 7.05008C16.7107 7.01832 16.7243 6.98807 16.7451 6.96299C16.852 6.83403 16.9422 6.80354 17.0868 6.76803C17.1045 6.76367 17.1227 6.76134 17.1409 6.76177C17.2663 6.76461 17.3398 6.79439 17.4359 6.86963C17.4627 6.89063 17.4835 6.91842 17.4976 6.94938C17.6334 7.24746 17.678 7.4327 17.7241 7.71613C17.7319 7.76392 17.7245 7.81299 17.7033 7.85652L17.5829 8.10401C17.5821 8.10567 17.5814 8.10714 17.5806 8.10884C17.5677 8.13819 17.4374 8.44329 17.4742 8.78034C17.4752 8.79001 17.4759 8.79959 17.4761 8.80926C17.477 8.871 17.4846 9.12328 17.5415 9.41121C17.6006 9.70986 17.6991 9.96167 17.7182 10.0091C17.7204 10.0145 17.7221 10.019 17.724 10.0246C17.7585 10.1281 18.1399 11.2688 18.2391 11.4464C18.3429 11.6325 18.5856 11.8529 18.6399 11.9712C18.6904 12.0815 18.9433 12.7788 18.9775 12.8733C18.9802 12.8806 18.9823 12.8877 18.9842 12.8952C19.0118 13.0027 19.2309 13.8541 19.308 13.9987C19.387 14.147 19.782 14.8298 19.8135 14.8841C19.8149 14.8867 19.8161 14.8889 19.8175 14.8915L20.2574 15.7215L20.5913 16.2801C20.5948 16.2861 20.598 16.292 20.6011 16.2983C20.6311 16.3593 20.8045 16.7081 20.9491 16.9021C21.1081 17.1153 21.4303 17.495 21.612 17.6467C21.7935 17.7983 22.2232 18.1351 22.4301 18.2469C22.637 18.3587 23.0597 18.7482 23.2525 18.5246C23.4321 18.3164 23.0863 17.8447 23.0381 17.7811C23.0343 17.7761 23.0309 17.7713 23.0274 17.7661L22.6408 17.1836C22.6366 17.1773 22.6322 17.1712 22.6274 17.1653C22.5825 17.1089 22.3351 16.7922 22.2231 16.5289C22.0997 16.2386 22.1053 15.8655 22.0997 15.6016C22.0966 15.4552 22.0626 15.2761 22.0328 15.1455C22.0088 15.0401 21.9841 14.9272 22.0796 14.8763C22.1091 14.8606 22.1441 14.8426 22.1845 14.8223C22.2878 14.7704 22.3404 14.6525 22.3079 14.5416L22.2442 14.3242C22.145 14.0404 22.1069 13.9112 22.0754 13.7553C22.0723 13.7403 22.0709 13.7249 22.0709 13.7096C22.0718 13.4254 22.0866 13.3113 22.129 13.1722C22.2124 12.9253 22.2638 12.8036 22.393 12.7243C22.6798 12.568 22.8632 12.4842 23.0599 12.414C23.2017 12.3633 23.2651 12.2012 23.2143 12.0594C23.1698 11.935 23.1524 11.8205 23.1446 11.6642C23.1263 11.3511 23.1194 11.1594 23.1227 10.9015C23.1239 10.8121 23.176 10.7307 23.2583 10.6959C23.4755 10.6041 23.6265 10.5736 23.8381 10.5369C23.8921 10.5275 23.9413 10.5 23.9759 10.4575C24.0664 10.3461 24.2458 10.1139 24.3183 9.93696C24.3785 9.79037 24.4201 9.54136 24.4436 9.36859C24.4587 9.25726 24.546 9.16827 24.657 9.15106C24.9256 9.10938 25.3955 9.0174 25.5127 8.87062C25.5958 8.76669 25.5547 8.62512 25.4926 8.50924C25.4276 8.38805 25.4368 8.22804 25.5465 8.14507C25.709 8.02208 25.788 7.97609 25.8899 7.91668L25.8921 7.9154C25.9375 7.88899 25.9718 7.8476 25.9938 7.80005C26.1101 7.54966 26.2738 7.40235 26.4912 7.2302C26.6146 7.13253 26.7995 7.19189 26.8438 7.3429C26.8528 7.37377 26.855 7.40629 26.8501 7.4381C26.8044 7.73353 26.7679 7.91099 26.6773 8.20831C26.5795 8.5374 26.4984 8.65593 26.4601 8.87062C26.4218 9.08535 26.3545 9.52291 26.3105 9.82265C26.2664 10.1224 26.2985 10.5361 26.3105 10.6202C26.3224 10.7044 26.4168 11.0246 26.4601 11.2609C26.5012 11.4849 26.7097 12.1217 26.7316 12.1881C26.7329 12.1921 26.7338 12.1953 26.7349 12.1993C26.7623 12.2998 27.1493 13.718 27.3066 14.1502C27.4698 14.5983 27.5569 14.6654 27.7361 14.911C27.9154 15.1566 28.0876 15.4126 28.2082 15.5411C28.3202 15.6604 28.6066 16.0638 28.647 16.1208C28.6503 16.1254 28.6536 16.1297 28.6572 16.1341L29.1876 16.7817C29.1893 16.7839 29.1908 16.7857 29.1927 16.7877C29.2263 16.8261 29.5962 17.2471 29.8236 17.5134C30.0301 17.7553 30.1826 18.0454 30.2196 18.1185C30.2255 18.1302 30.2321 18.1412 30.2396 18.1519L30.6881 18.7854C30.6906 18.7888 30.6926 18.7918 30.6949 18.7954C30.7429 18.8716 31.3444 19.8283 31.4624 20.0717C31.5854 20.3251 31.8136 21.2406 31.8357 21.3456Z" fill="white" stroke="white" stroke-width="0.237061"/>
</g>
</g>
</g>
<path d="M66.4853 41V14.4484H75.4569C77.5399 14.4484 79.2425 14.8243 80.5649 15.5763C81.896 16.3196 82.8813 17.3265 83.5209 18.5971C84.1605 19.8676 84.4803 21.2851 84.4803 22.8495C84.4803 24.4139 84.1605 25.8357 83.5209 27.1148C82.8899 28.394 81.9133 29.4139 80.5909 30.1745C79.2685 30.9265 77.5744 31.3024 75.5087 31.3024H69.0783V28.4502H75.405C76.8311 28.4502 77.9763 28.2039 78.8406 27.7112C79.705 27.2186 80.3316 26.553 80.7205 25.7147C81.1181 24.8676 81.3169 23.9126 81.3169 22.8495C81.3169 21.7864 81.1181 20.8356 80.7205 19.9972C80.3316 19.1589 79.7006 18.502 78.8277 18.0266C77.9547 17.5426 76.7965 17.3006 75.3531 17.3006H69.7006V41H66.4853ZM89.6597 41V14.4484H105.684V17.3006H92.8749V26.2721H104.854V29.1244H92.8749V38.1478H105.891V41H89.6597ZM112.568 41H109.197L118.947 14.4484H122.266L132.015 41H128.644L120.71 18.6489H120.503L112.568 41ZM113.813 30.6283H127.4V33.4805H113.813V30.6283ZM156.269 22.7458H153.054C152.863 21.8209 152.531 21.0085 152.055 20.3084C151.589 19.6083 151.018 19.0206 150.344 18.5452C149.679 18.0612 148.94 17.6982 148.127 17.4562C147.315 17.2142 146.468 17.0932 145.586 17.0932C143.978 17.0932 142.522 17.4994 141.217 18.3118C139.92 19.1243 138.888 20.3214 138.118 21.903C137.358 23.4847 136.977 25.4251 136.977 27.7242C136.977 30.0232 137.358 31.9636 138.118 33.5453C138.888 35.127 139.92 36.3241 141.217 37.1365C142.522 37.949 143.978 38.3552 145.586 38.3552C146.468 38.3552 147.315 38.2342 148.127 37.9922C148.94 37.7502 149.679 37.3915 150.344 36.9161C151.018 36.4321 151.589 35.8401 152.055 35.14C152.531 34.4312 152.863 33.6188 153.054 32.7026H156.269C156.027 34.0596 155.586 35.2739 154.946 36.3457C154.307 37.4174 153.512 38.3293 152.561 39.0812C151.61 39.8245 150.543 40.3907 149.359 40.7796C148.183 41.1685 146.926 41.363 145.586 41.363C143.321 41.363 141.308 40.8099 139.544 39.7035C137.781 38.5972 136.394 37.0242 135.383 34.9844C134.372 32.9446 133.866 30.5245 133.866 27.7242C133.866 24.9238 134.372 22.5037 135.383 20.464C136.394 18.4242 137.781 16.8511 139.544 15.7448C141.308 14.6385 143.321 14.0854 145.586 14.0854C146.926 14.0854 148.183 14.2798 149.359 14.6688C150.543 15.0577 151.61 15.6281 152.561 16.3801C153.512 17.1234 154.307 18.0309 154.946 19.1027C155.586 20.1658 156.027 21.3801 156.269 22.7458ZM161.464 41V14.4484H177.489V17.3006H164.68V26.2721H176.659V29.1244H164.68V38.1478H177.696V41H161.464ZM215.955 27.7242C215.955 30.5245 215.449 32.9446 214.438 34.9844C213.427 37.0242 212.04 38.5972 210.276 39.7035C208.513 40.8099 206.499 41.363 204.235 41.363C201.97 41.363 199.957 40.8099 198.193 39.7035C196.43 38.5972 195.043 37.0242 194.032 34.9844C193.02 32.9446 192.515 30.5245 192.515 27.7242C192.515 24.9238 193.02 22.5037 194.032 20.464C195.043 18.4242 196.43 16.8511 198.193 15.7448C199.957 14.6385 201.97 14.0854 204.235 14.0854C206.499 14.0854 208.513 14.6385 210.276 15.7448C212.04 16.8511 213.427 18.4242 214.438 20.464C215.449 22.5037 215.955 24.9238 215.955 27.7242ZM212.843 27.7242C212.843 25.4251 212.459 23.4847 211.69 21.903C210.929 20.3214 209.896 19.1243 208.591 18.3118C207.295 17.4994 205.843 17.0932 204.235 17.0932C202.627 17.0932 201.171 17.4994 199.866 18.3118C198.569 19.1243 197.536 20.3214 196.767 21.903C196.007 23.4847 195.626 25.4251 195.626 27.7242C195.626 30.0232 196.007 31.9636 196.767 33.5453C197.536 35.127 198.569 36.3241 199.866 37.1365C201.171 37.949 202.627 38.3552 204.235 38.3552C205.843 38.3552 207.295 37.949 208.591 37.1365C209.896 36.3241 210.929 35.127 211.69 33.5453C212.459 31.9636 212.843 30.0232 212.843 27.7242ZM221.361 41V14.4484H230.644C232.494 14.4484 234.019 14.7682 235.22 15.4077C236.422 16.0387 237.316 16.89 237.904 17.9618C238.492 19.0249 238.786 20.2047 238.786 21.5011C238.786 22.642 238.583 23.5841 238.176 24.3274C237.779 25.0707 237.252 25.6585 236.595 26.0906C235.946 26.5228 235.242 26.8426 234.481 27.05V27.3093C235.294 27.3612 236.111 27.6464 236.932 28.165C237.753 28.6836 238.44 29.4269 238.993 30.3949C239.546 31.3629 239.823 32.547 239.823 33.9472C239.823 35.2783 239.52 36.4753 238.915 37.5384C238.31 38.6015 237.355 39.4442 236.05 40.0665C234.745 40.6888 233.047 41 230.955 41H221.361ZM224.576 38.1478H230.955C233.055 38.1478 234.546 37.7415 235.428 36.9291C236.318 36.108 236.763 35.114 236.763 33.9472C236.763 33.0483 236.534 32.2186 236.076 31.458C235.618 30.6888 234.965 30.0751 234.118 29.617C233.271 29.1503 232.269 28.9169 231.111 28.9169H224.576V38.1478ZM224.576 26.1166H230.54C231.508 26.1166 232.381 25.9264 233.159 25.5461C233.946 25.1658 234.568 24.6299 235.026 23.9385C235.493 23.2471 235.726 22.4346 235.726 21.5011C235.726 20.3343 235.32 19.3447 234.507 18.5322C233.695 17.7111 232.407 17.3006 230.644 17.3006H224.576V26.1166ZM259.626 21.0863C259.471 19.7725 258.84 18.7526 257.734 18.0266C256.627 17.3006 255.27 16.9376 253.663 16.9376C252.487 16.9376 251.459 17.1277 250.577 17.508C249.704 17.8883 249.021 18.4112 248.529 19.0767C248.045 19.7423 247.803 20.4985 247.803 21.3456C247.803 22.0543 247.971 22.6636 248.308 23.1736C248.654 23.6749 249.095 24.0941 249.631 24.4312C250.167 24.7596 250.728 25.0319 251.316 25.2479C251.904 25.4554 252.444 25.6239 252.937 25.7536L255.633 26.4796C256.325 26.6611 257.094 26.9117 257.941 27.2315C258.797 27.5513 259.613 27.9878 260.391 28.541C261.178 29.0855 261.826 29.7856 262.336 30.6412C262.846 31.4969 263.101 32.547 263.101 33.7916C263.101 35.2264 262.725 36.5229 261.973 37.681C261.23 38.8392 260.141 39.7597 258.706 40.4425C257.28 41.1253 255.547 41.4667 253.507 41.4667C251.606 41.4667 249.959 41.1599 248.568 40.5462C247.185 39.9326 246.096 39.0769 245.3 37.9792C244.514 36.8816 244.069 35.6067 243.965 34.1547H247.284C247.37 35.1573 247.708 35.987 248.295 36.6439C248.892 37.2921 249.644 37.7761 250.551 38.0959C251.467 38.4071 252.453 38.5626 253.507 38.5626C254.734 38.5626 255.836 38.3639 256.813 37.9663C257.79 37.56 258.563 36.9982 259.134 36.2809C259.704 35.5548 259.989 34.7078 259.989 33.7398C259.989 32.8582 259.743 32.1408 259.25 31.5877C258.758 31.0345 258.11 30.5851 257.306 30.2393C256.502 29.8936 255.633 29.5911 254.7 29.3318L251.433 28.3983C249.358 27.802 247.716 26.9506 246.506 25.8443C245.296 24.738 244.691 23.2903 244.691 21.5011C244.691 20.0145 245.093 18.7181 245.897 17.6117C246.709 16.4968 247.798 15.6325 249.164 15.0188C250.538 14.3965 252.072 14.0854 253.766 14.0854C255.478 14.0854 256.999 14.3922 258.33 15.0058C259.661 15.6109 260.715 16.4406 261.493 17.4951C262.28 18.5495 262.695 19.7466 262.738 21.0863H259.626ZM268.387 41V14.4484H284.412V17.3006H271.603V26.2721H283.582V29.1244H271.603V38.1478H284.619V41H268.387ZM290.207 41V14.4484H299.178C301.253 14.4484 302.955 14.8027 304.286 15.5115C305.617 16.2116 306.603 17.1753 307.242 18.4026C307.882 19.6299 308.202 21.0258 308.202 22.5902C308.202 24.1546 307.882 25.5418 307.242 26.7518C306.603 27.9619 305.622 28.9126 304.299 29.6041C302.977 30.2869 301.287 30.6283 299.23 30.6283H291.97V27.7242H299.127C300.544 27.7242 301.685 27.5167 302.549 27.1019C303.422 26.687 304.053 26.0993 304.442 25.3387C304.84 24.5694 305.038 23.6533 305.038 22.5902C305.038 21.5271 304.84 20.5979 304.442 19.8028C304.044 19.0076 303.409 18.3939 302.536 17.9618C301.663 17.521 300.509 17.3006 299.075 17.3006H293.422V41H290.207ZM302.705 29.0725L309.239 41H305.505L299.075 29.0725H302.705ZM314.042 14.4484L321.925 36.7994H322.236L330.119 14.4484H333.489L323.74 41H320.421L310.672 14.4484H314.042ZM336.432 41H333.062L342.811 14.4484H346.13L355.879 41H352.509L344.574 18.6489H344.367L336.432 41ZM337.677 30.6283H351.264V33.4805H337.677V30.6283ZM355.461 17.3006V14.4484H375.375V17.3006H367.026V41H363.81V17.3006H355.461ZM401.635 27.7242C401.635 30.5245 401.129 32.9446 400.118 34.9844C399.107 37.0242 397.72 38.5972 395.956 39.7035C394.193 40.8099 392.179 41.363 389.915 41.363C387.65 41.363 385.637 40.8099 383.873 39.7035C382.11 38.5972 380.723 37.0242 379.712 34.9844C378.7 32.9446 378.195 30.5245 378.195 27.7242C378.195 24.9238 378.7 22.5037 379.712 20.464C380.723 18.4242 382.11 16.8511 383.873 15.7448C385.637 14.6385 387.65 14.0854 389.915 14.0854C392.179 14.0854 394.193 14.6385 395.956 15.7448C397.72 16.8511 399.107 18.4242 400.118 20.464C401.129 22.5037 401.635 24.9238 401.635 27.7242ZM398.523 27.7242C398.523 25.4251 398.139 23.4847 397.37 21.903C396.609 20.3214 395.576 19.1243 394.271 18.3118C392.975 17.4994 391.522 17.0932 389.915 17.0932C388.307 17.0932 386.851 17.4994 385.546 18.3118C384.249 19.1243 383.216 20.3214 382.447 21.903C381.687 23.4847 381.306 25.4251 381.306 27.7242C381.306 30.0232 381.687 31.9636 382.447 33.5453C383.216 35.127 384.249 36.3241 385.546 37.1365C386.851 37.949 388.307 38.3552 389.915 38.3552C391.522 38.3552 392.975 37.949 394.271 37.1365C395.576 36.3241 396.609 35.127 397.37 33.5453C398.139 31.9636 398.523 30.0232 398.523 27.7242ZM407.041 41V14.4484H416.013C418.087 14.4484 419.79 14.8027 421.121 15.5115C422.452 16.2116 423.437 17.1753 424.077 18.4026C424.716 19.6299 425.036 21.0258 425.036 22.5902C425.036 24.1546 424.716 25.5418 424.077 26.7518C423.437 27.9619 422.456 28.9126 421.134 29.6041C419.811 30.2869 418.122 30.6283 416.065 30.6283H408.804V27.7242H415.961C417.378 27.7242 418.519 27.5167 419.384 27.1019C420.256 26.687 420.887 26.0993 421.276 25.3387C421.674 24.5694 421.873 23.6533 421.873 22.5902C421.873 21.5271 421.674 20.5979 421.276 19.8028C420.879 19.0076 420.244 18.3939 419.371 17.9618C418.498 17.521 417.344 17.3006 415.909 17.3006H410.256V41H407.041ZM419.539 29.0725L426.073 41H422.339L415.909 29.0725H419.539ZM427.221 14.4484H430.903L438.267 26.8426H438.578L445.942 14.4484H449.624L440.03 30.0578V41H436.815V30.0578L427.221 14.4484Z" fill="white"/>
<defs>
<clipPath id="clip0_156_158">
<rect width="51.3" height="51.3" fill="white"/>
</clipPath>
<clipPath id="clip1_156_158">
<rect width="51.3" height="51.3" fill="white"/>
</clipPath>
<clipPath id="clip2_156_158">
<rect width="51.3" height="51.3" fill="white"/>
</clipPath>
</defs>
</svg>
