<svg width="20" height="21" viewBox="0 0 20 21" fill="none" xmlns="http://www.w3.org/2000/svg">
<g clip-path="url(#clip0_426_717)">
<path d="M16.25 8.34497C16.25 10.1379 15.668 11.7942 14.6875 13.1379L19.6328 18.0872C20.1211 18.5754 20.1211 19.3684 19.6328 19.8567C19.1445 20.345 18.3516 20.345 17.8633 19.8567L12.918 14.9075C11.5742 15.8918 9.91797 16.47 8.125 16.47C3.63672 16.47 0 12.8333 0 8.34497C0 3.85669 3.63672 0.219971 8.125 0.219971C12.6133 0.219971 16.25 3.85669 16.25 8.34497ZM8.125 13.97C8.86369 13.97 9.59514 13.8245 10.2776 13.5418C10.9601 13.2591 11.5801 12.8448 12.1025 12.3224C12.6248 11.8001 13.0391 11.18 13.3218 10.4976C13.6045 9.81511 13.75 9.08366 13.75 8.34497C13.75 7.60629 13.6045 6.87483 13.3218 6.19238C13.0391 5.50992 12.6248 4.88982 12.1025 4.3675C11.5801 3.84517 10.9601 3.43083 10.2776 3.14815C9.59514 2.86547 8.86369 2.71997 8.125 2.71997C7.38631 2.71997 6.65486 2.86547 5.97241 3.14815C5.28995 3.43083 4.66985 3.84517 4.14752 4.3675C3.62519 4.88982 3.21086 5.50992 2.92818 6.19238C2.64549 6.87483 2.5 7.60629 2.5 8.34497C2.5 9.08366 2.64549 9.81511 2.92818 10.4976C3.21086 11.18 3.62519 11.8001 4.14752 12.3224C4.66985 12.8448 5.28995 13.2591 5.97241 13.5418C6.65486 13.8245 7.38631 13.97 8.125 13.97Z" fill="white"/>
</g>
<defs>
<clipPath id="clip0_426_717">
<rect width="20" height="20" fill="white" transform="translate(0 0.219971)"/>
</clipPath>
</defs>
</svg>
