<svg width="24" height="25" viewBox="0 0 24 25" fill="none" xmlns="http://www.w3.org/2000/svg">
<path d="M11.9523 0.00318449C14.0578 0.00318452 16.1264 0.557211 17.9501 1.60962C19.7738 2.66204 21.2885 4.17578 22.342 5.99883L15.4152 10.0019C15.064 9.39431 14.5592 8.88978 13.9513 8.53901C13.3435 8.18824 12.654 8.00358 11.9523 8.00358V0.00318449Z" fill="#AA3377"/>
<path d="M22.3377 6.0334C23.3907 7.85677 23.9454 9.92511 23.9461 12.0307C23.9468 14.1363 23.3934 16.205 22.3416 18.029L15.4109 14.0325C15.7615 13.4246 15.9459 12.7351 15.9457 12.0333C15.9455 11.3315 15.7606 10.6421 15.4096 10.0344L22.3377 6.0334Z" fill="#66CCEE"/>
<path d="M22.3522 18.0032C21.2992 19.8265 19.7848 21.3406 17.9614 22.3935C16.138 23.4464 14.0696 24.0009 11.964 24.0015L11.9619 16.0011C12.6637 16.0009 13.3531 15.8161 13.9609 15.4651C14.5686 15.1142 15.0733 14.6096 15.4243 14.0019L22.3522 18.0032Z" fill="#CCBB44"/>
<path d="M11.9523 24.0032C9.84668 23.9951 7.78029 23.4332 5.96062 22.3738C4.14094 21.3145 2.63204 19.7949 1.58545 17.9679L8.52757 13.9913C8.8764 14.6002 9.37931 15.1067 9.98581 15.4598C10.5923 15.8129 11.281 16.0002 11.9828 16.0028L11.9523 24.0032Z" fill="#228833"/>
<path d="M1.57225 17.9796C0.530306 16.1499 -0.0118635 14.0782 0.000196902 11.9726C0.0122573 9.86708 0.578123 7.80177 1.64096 5.98411L8.54733 10.0225C8.19309 10.6283 8.00448 11.3167 8.00046 12.0185C7.99644 12.7202 8.17715 13.4107 8.52443 14.0206L1.57225 17.9796Z" fill="#EE6677"/>
<path d="M1.57225 6.04756C2.61667 4.21926 4.12378 2.69796 5.9422 1.63643C7.76062 0.574908 9.82635 0.0105365 11.9319 0L11.9719 8.0003C11.2702 8.00381 10.5817 8.19192 9.97557 8.54572C9.36949 8.89953 8.86718 9.40658 8.51907 10.016L1.57225 6.04756Z" fill="#4477AA"/>
</svg>
